<svg width="39" height="43" viewBox="0 0 39 43" fill="none" xmlns="http://www.w3.org/2000/svg">
<path d="M39.0002 43.0002C37.6372 43.0002 36.3896 43.0002 35.0606 43.0002C34.8833 37.5914 32.727 33.1862 28.2505 30.0766C25.4528 28.1331 22.2979 27.3129 18.905 27.4193C10.9395 27.6699 4.06862 34.0699 3.92406 42.9892C2.66067 42.9892 1.39727 42.9892 0.00146484 42.9892C0.392631 34.6456 4.28607 28.6673 11.7425 24.9673C7.826 21.9922 5.75598 18.0795 5.91026 13.1133C6.02202 9.51964 7.42026 6.42472 9.9762 3.9263C15.4185 -1.39324 23.9537 -1.26489 29.198 4.06076C34.4569 9.40229 34.9209 19.3886 27.2786 24.9771C34.7059 28.6563 38.6042 34.6359 39.0002 43.0002ZM19.5258 3.91163C14.2134 3.87985 9.84743 8.23376 9.7794 13.6315C9.71259 18.9792 14.1041 23.4345 19.4723 23.4663C24.7846 23.4981 29.1518 19.1442 29.2187 13.7464C29.2855 8.39999 24.894 3.94341 19.5258 3.91163Z" fill="black"/>
</svg>
