<svg width="40" height="37" viewBox="0 0 40 37" fill="none" xmlns="http://www.w3.org/2000/svg">
<g clip-path="url(#clip0)">
<path d="M29 0C25.42 0.01 22.06 1.75 20 4.69C17.94 1.75 14.58 0.01 11 0C5.14 0 0 5.45 0 11.67C0 17.73 3.42 23.96 9.89 29.71C12.89 32.37 16.18 34.68 19.69 36.6C19.88 36.7 20.11 36.7 20.3 36.6C23.82 34.68 27.1 32.37 30.1 29.71C36.58 23.96 40 17.72 40 11.67C40 5.45 34.86 0 29 0Z" fill="#C9AE1F"/>
</g>
<defs>
<clipPath id="clip0">
<rect width="40" height="36.67" fill="white"/>
</clipPath>
</defs>
</svg>
