<svg width="40" height="38" viewBox="0 0 40 38" fill="none" xmlns="http://www.w3.org/2000/svg">
<path d="M29 0.666016C25.4167 0.671549 22.0599 2.41927 20 5.35124C17.9401 2.41927 14.5833 0.671549 11 0.666016C5.13997 0.666016 0 6.11816 0 12.3327C0 18.3893 3.41992 24.6273 9.89062 30.3727C12.8887 33.0296 16.1774 35.3392 19.694 37.2581C19.8861 37.3571 20.1139 37.3571 20.306 37.2581C23.8213 35.3392 27.1091 33.0293 30.1061 30.3727C36.5801 24.6273 40 18.3893 40 12.3327C40 6.11816 34.86 0.666016 29 0.666016ZM20 35.9079C17.5514 34.5566 1.33333 25.1165 1.33333 12.3327C1.33333 6.82812 5.84994 1.99935 11 1.99935C14.4889 2.00553 17.7051 3.8877 19.4193 6.92676C19.5475 7.12272 19.766 7.24056 20 7.24056C20.2341 7.24056 20.4525 7.12272 20.5807 6.92676C22.2949 3.8877 25.5111 2.00553 29 1.99935C34.1501 1.99935 38.6667 6.82812 38.6667 12.3327C38.6667 25.1165 22.4486 34.5566 20 35.9079Z" fill="black"/>
</svg>
