<svg width="36" height="43" viewBox="0 0 36 43" fill="none" xmlns="http://www.w3.org/2000/svg">
<path d="M34.0655 29.3621C33.8839 29.4993 33.7054 29.6351 33.5269 29.7693C32.5832 30.4828 31.6906 31.1586 30.7754 31.8239C30.5249 32.0049 30.4469 32.1738 30.4514 32.5193C30.4694 33.9206 30.4679 35.3446 30.4649 36.7218C30.4649 37.2332 30.4634 37.7445 30.4634 38.2559V38.9634C30.4634 39.1715 30.2953 39.3405 30.0883 39.3405H4.02447C3.81744 39.3405 3.64941 39.1715 3.64941 38.9634V4.0502C3.64941 3.84203 3.81744 3.67309 4.02447 3.67309H30.0868C30.2938 3.67309 30.4619 3.84203 30.4619 4.0502C30.4619 4.58118 30.4604 5.10913 30.4604 5.63408C30.4574 7.30695 30.4544 8.8863 30.4784 10.4988C30.4814 10.7055 30.5954 10.9906 30.7139 11.0841C31.6351 11.8218 32.5772 12.5277 33.5764 13.2759C33.7399 13.3981 33.9034 13.5218 34.07 13.6455L34.0715 11.5668C34.073 9.11257 34.0745 6.57535 34.0685 4.08037C34.0625 1.75735 32.3087 0.00301691 29.9893 0.00301691C25.6986 0 21.4109 0 17.1247 0C12.7859 0 8.44721 0 4.10848 0.00150845C1.73209 0.00150845 0.0053004 1.73774 0.0053004 4.13015C0.000799648 14.546 0.000799648 25.5924 0.00380015 38.897C0.00380015 41.2728 1.74259 42.997 4.13549 42.9985C12.7364 43 21.3374 43 29.9398 42.9985C32.3672 42.9985 34.064 41.2789 34.067 38.8186C34.07 35.8228 34.0685 32.827 34.067 29.8312V29.3922C34.067 29.3817 34.067 29.3726 34.0655 29.3621Z" fill="black"/>
<path d="M36 21.4997L26.0848 14.0253V19.2928C26.0848 19.501 25.9168 19.67 25.7097 19.67H24.7616C23.962 19.67 23.1608 19.6715 22.3612 19.673C20.1498 19.676 17.8619 19.6805 15.6131 19.6564C15.307 19.6534 15.25 19.7062 15.2455 19.7122C15.2395 19.7182 15.1915 19.7786 15.205 20.0742C15.2515 21.0366 15.2515 22.0126 15.205 22.975C15.1915 23.242 15.238 23.2948 15.238 23.2948C15.238 23.2948 15.286 23.3476 15.5861 23.343C17.0683 23.3295 18.5671 23.3265 20.0493 23.3265C20.8459 23.3265 21.6396 23.328 22.4227 23.328C23.2193 23.3295 24.0145 23.3295 24.8111 23.3295H25.7472C25.9543 23.3295 26.1223 23.4984 26.1223 23.7066V28.9485L36 21.4997Z" fill="black"/>
</svg>
