<svg width="53" height="46" viewBox="0 0 53 46" fill="none" xmlns="http://www.w3.org/2000/svg">
<path d="M0 1.03901C0.581822 0.00921118 1.29556 -0.142299 2.5228 0.0991706C5.57089 0.695743 7.23627 2.30317 7.76156 5.41861C8.08898 7.3622 8.3104 7.28408 10.2349 7.41192C16.7692 7.85225 23.3012 8.33045 29.8355 8.78261C34.8434 9.13062 39.8536 9.45968 44.8616 9.79584C46.1524 9.88343 47.4503 9.90711 48.7341 10.0586C50.8847 10.3119 52.2816 11.55 53 13.5836C53 14.2157 53 14.8454 53 15.4775C51.7468 20.3329 50.4395 25.1765 49.2664 30.0509C48.76 32.1578 47.9662 33.9996 46.07 35.2827C47.2336 36.8428 48.0133 38.4834 47.7377 40.4436C47.528 41.9326 46.9062 43.2228 45.8108 44.2621C43.7427 46.2223 40.7464 46.5513 38.3202 45.093C35.5336 43.4217 34.808 40.8389 35.9505 36.5824C32.0285 36.5824 28.1159 36.5824 24.1963 36.5824C25.3458 41.1419 24.446 43.862 21.3036 45.3629C18.6065 46.6531 15.4312 45.8719 13.6222 43.4738C11.6812 40.8981 12.018 37.7472 14.5903 34.8637C11.302 31.7767 11.1889 27.3426 9.93573 23.4057C7.99476 17.3122 6.31996 11.1334 4.58391 4.97591C4.32951 4.07395 3.91729 3.63599 3.01747 3.36612C1.96924 3.05126 1.00111 2.45942 0 1.98595C0 1.67109 0 1.35387 0 1.03901ZM9.66956 10.7144C9.66956 11.015 9.64129 11.1405 9.67427 11.247C11.4998 17.5844 13.3018 23.9289 15.1792 30.2498C15.6338 31.7862 16.6797 32.984 18.2603 33.4054C19.2991 33.6824 20.4297 33.7061 21.518 33.6966C28.4127 33.6422 35.3074 33.5309 42.2021 33.4765C43.9005 33.4622 45.6365 32.4348 46.0747 30.7919C47.4056 25.7826 48.6728 20.7567 49.9072 15.7237C50.2299 14.4074 49.6575 13.6783 48.2983 13.567C43.2998 13.1575 38.299 12.7858 33.2958 12.4118C28.2549 12.033 23.2116 11.666 18.1708 11.3015C15.3606 11.1003 12.5528 10.9132 9.66956 10.7144ZM38.3956 39.6955C38.3932 41.6012 39.7005 42.9151 41.5661 42.8843C43.3587 42.8535 44.6755 41.516 44.6825 39.7144C44.6896 37.8442 43.3564 36.5303 41.4719 36.5493C39.6299 36.5706 38.3956 37.8324 38.3956 39.6955ZM15.5278 39.57C15.4925 41.5231 16.6703 42.8228 18.5288 42.8819C20.3661 42.9411 21.7371 41.6107 21.7465 39.757C21.7559 38.0099 20.4109 36.6014 18.6819 36.5516C16.8493 36.4972 15.5584 37.7329 15.5278 39.57Z" fill="black"/>
</svg>
