<svg width="46" height="40" viewBox="0 0 46 40" fill="none" xmlns="http://www.w3.org/2000/svg">
<path d="M22.877 39.9995C19.0368 36.1585 15.2271 32.3458 11.4153 28.5354C8.78583 25.9084 6.11253 23.3252 3.53119 20.6502C-2.9342 13.953 -0.12516 3.01292 8.72234 0.519197C13.1275 -0.723297 17.0838 0.300833 20.4643 3.39069C21.2963 4.1506 22.0341 5.01314 22.9624 5.98049C23.7813 5.12014 24.4863 4.30564 25.2657 3.57193C28.7622 0.276813 32.874 -0.810643 37.4674 0.608727C42.0258 2.01718 44.8502 5.20967 45.75 9.87393C46.5032 13.7761 45.5596 17.3944 42.7483 20.255C36.2895 26.8321 29.7168 33.2979 23.1901 39.8052C23.1398 39.8576 23.0675 39.8838 22.877 39.9995ZM22.8376 35.6213C28.8454 29.6927 34.8423 23.8864 40.6924 17.9381C42.8447 15.7501 43.3876 12.9048 42.6257 9.91979C40.8851 3.09808 32.6682 0.752847 27.569 5.62238C26.0167 7.10507 24.5585 8.68385 22.923 10.3543C21.3269 8.70568 19.8578 7.13564 18.3296 5.62674C16.5299 3.84926 14.2944 2.94959 11.7963 3.08498C7.97136 3.29243 5.11853 5.19002 3.68007 8.75154C2.22191 12.3633 3.00792 15.6955 5.69654 18.5015C7.91444 20.8162 10.2287 23.0413 12.4991 25.3079C15.954 28.7559 19.4112 32.2039 22.8376 35.6213Z" fill="black"/>
</svg>
