<svg width="28" height="28" viewBox="0 0 28 28" fill="none" xmlns="http://www.w3.org/2000/svg">
<path d="M13.5401 17.7556C13.1393 17.7556 12.7379 17.755 12.3371 17.7556C12.1725 17.7556 12.0208 17.7141 12.0152 17.5263C11.9888 16.6397 11.9687 15.752 12.3247 14.9097C12.6937 14.0369 13.3761 13.4227 14.0826 12.8285C14.5226 12.458 14.9609 12.0848 15.4004 11.7137C16.4097 10.862 16.0968 9.42879 14.8719 8.90712C13.263 8.22263 11.6703 9.03449 11.185 10.7751C11.0573 11.233 11.0568 11.2364 10.5843 11.1793C9.83524 11.0896 9.08621 10.996 8.33773 10.9013C8.02536 10.862 7.97441 10.7939 8.00856 10.4865C8.2045 8.71218 9.14779 7.41465 10.7455 6.67312C12.7681 5.73444 14.8534 5.77875 16.8419 6.78942C18.1496 7.45452 19.0336 8.52555 19.2592 10.0241C19.4176 11.0769 19.1646 12.0443 18.453 12.8346C17.8479 13.5069 17.1559 14.1028 16.4987 14.7286C16.3173 14.9008 16.127 15.0647 15.9305 15.2198C15.3377 15.6866 15.102 16.2997 15.1025 17.0384C15.1025 17.7578 15.0835 17.7573 14.3529 17.7539C14.0826 17.7528 13.8122 17.7539 13.5412 17.7539C13.5401 17.7539 13.5401 17.755 13.5401 17.7556ZM14.6228 17.2622C14.6295 17.1918 14.6396 17.147 14.6368 17.1032C14.5606 16.0693 15.0124 15.2873 15.8191 14.6737C15.9003 14.6117 15.9798 14.5469 16.0537 14.4772C16.7383 13.8264 17.4566 13.2062 18.0948 12.5134C18.6467 11.9142 18.8684 11.1599 18.8096 10.3353C18.7318 9.24216 18.1877 8.40261 17.372 7.71037C16.4786 6.95168 15.4127 6.62826 14.2611 6.54852C12.6567 6.43665 11.1508 6.68364 9.90298 7.79455C9.11308 8.49786 8.62436 9.36067 8.49672 10.4472C9.23904 10.5369 9.96456 10.6244 10.694 10.7125C10.7461 10.5563 10.7864 10.4251 10.8328 10.2955C11.4733 8.50396 13.3873 7.7065 15.1384 8.50008C16.3308 9.04058 16.848 10.4018 16.2171 11.4523C16.0083 11.8001 15.6875 12.092 15.3824 12.3711C14.7739 12.9282 14.1273 13.4443 13.5222 14.0048C13.0503 14.4417 12.7362 14.985 12.6024 15.6202C12.4882 16.1607 12.4423 16.7039 12.491 17.2622C13.2126 17.2622 13.9012 17.2622 14.6228 17.2622Z" fill="black"/>
<path d="M13.6658 20.9984C13.3215 20.9984 12.9767 20.9951 12.6324 20.9995C12.3973 21.0023 12.2954 20.8927 12.2971 20.6623C12.301 19.9811 12.3021 19.2994 12.2959 18.6177C12.2937 18.3646 12.3905 18.2472 12.6587 18.2511C13.3473 18.2599 14.0364 18.2594 14.725 18.2511C14.9713 18.2477 15.0894 18.3413 15.0883 18.5883C15.0855 19.2883 15.0861 19.9883 15.0866 20.6878C15.0872 20.9104 14.9707 21.0012 14.7546 20.9995C14.3919 20.9962 14.0286 20.9984 13.6658 20.9984ZM14.5828 20.5144C14.5828 19.9158 14.5828 19.3409 14.5828 18.7534C13.9815 18.7534 13.3954 18.7534 12.807 18.7534C12.807 19.3553 12.807 19.9296 12.807 20.5144C13.401 20.5144 13.9754 20.5144 14.5828 20.5144Z" fill="black"/>
<path d="M0.000984016 13.8243C0.0921394 6.19886 6.33205 -0.02298 14.0579 6.38049e-05C21.738 0.0231076 28.1788 6.34559 27.9962 14.3367C27.8251 21.8185 21.7681 27.877 14.2463 27.998C6.25648 28.1264 -0.0908491 21.6555 0.000984016 13.8243ZM27.1456 14.0124C27.1548 6.75496 21.2927 0.900129 14.0969 0.855058C6.81121 0.80897 0.927787 6.63804 0.857641 13.8501C0.785463 21.26 6.6987 27.0769 13.8586 27.145C21.309 27.2162 27.1483 21.2062 27.1456 14.0124Z" fill="black"/>
</svg>
