<svg width="28" height="28" viewBox="0 0 28 28" fill="none" xmlns="http://www.w3.org/2000/svg">
<path d="M0.000984016 13.8243C0.0921394 6.19886 6.33205 -0.02298 14.0579 6.38049e-05C21.738 0.0231076 28.1788 6.34559 27.9962 14.3367C27.8251 21.8185 21.7681 27.877 14.2463 27.998C6.25648 28.1264 -0.0908491 21.6555 0.000984016 13.8243ZM27.1456 14.0124C27.1548 6.75496 21.2927 0.900129 14.0969 0.855058C6.81121 0.80897 0.927787 6.63804 0.857641 13.8501C0.785463 21.26 6.6987 27.0769 13.8586 27.145C21.309 27.2162 27.1483 21.2062 27.1456 14.0124Z" fill="black"/>
<g clip-path="url(#clip0)">
<path d="M13.717 23.0001C13.4312 22.5197 13.1413 22.0683 12.8846 21.5962C12.0977 20.1467 11.3026 18.6972 10.5447 17.2312C10.0105 16.1959 9.55907 15.1232 9.21947 14.0092C8.71423 12.3444 9.09109 10.8742 10.2051 9.57382C10.876 8.79525 11.7374 8.30243 12.7396 8.10364C14.2802 7.79718 15.6634 8.15748 16.852 9.18868C17.6554 9.88857 18.1441 10.7748 18.3595 11.8143C18.5334 12.6633 18.405 13.475 18.1317 14.2825C17.643 15.732 17.0011 17.1152 16.2763 18.457C15.4729 19.9438 14.6239 21.4057 13.7915 22.88C13.7791 22.9131 13.7543 22.9463 13.717 23.0001ZM13.7211 9.07686C11.7747 9.06858 10.0726 10.6423 10.0726 12.7213C10.0726 14.7505 11.6794 16.3657 13.7128 16.3739C15.7504 16.3822 17.3697 14.7505 17.3697 12.7213C17.3738 10.7044 15.7338 9.081 13.7211 9.07686Z" fill="black"/>
<path d="M14.9967 15.2353C14.566 15.2187 14.1767 15.0655 13.8289 14.8253C12.8805 14.1668 12.1599 13.3054 11.6836 12.2494C11.5014 11.8477 11.4145 11.4211 11.5138 10.9697C11.5925 10.6301 11.8327 10.4272 12.0646 10.216C12.1475 10.1414 12.2552 10.1787 12.3256 10.2615C12.6237 10.6094 12.9178 10.9614 13.2077 11.3176C13.2946 11.4252 13.2739 11.5371 13.1621 11.624C13.0627 11.7027 12.955 11.7731 12.8515 11.8477C12.7148 11.9471 12.6817 12.0464 12.7521 12.2038C12.8018 12.3156 12.8515 12.4316 12.9261 12.5227C13.2367 12.8913 13.5514 13.2557 13.8744 13.616C13.949 13.6988 14.0442 13.7651 14.1353 13.8231C14.2637 13.9059 14.3672 13.8894 14.4708 13.7734C14.5536 13.6823 14.6323 13.5912 14.7151 13.5042C14.8187 13.4007 14.9263 13.3924 15.0216 13.5042C15.3239 13.8562 15.6179 14.2124 15.9161 14.5685C15.9865 14.6555 15.9989 14.7632 15.912 14.8294C15.6386 15.0324 15.3695 15.2519 14.9967 15.2353Z" fill="black"/>
</g>
<defs>
<clipPath id="clip0">
<rect width="9.4423" height="15" fill="white" transform="translate(9 8)"/>
</clipPath>
</defs>
</svg>
