<svg width="28" height="28" viewBox="0 0 28 28" fill="none" xmlns="http://www.w3.org/2000/svg">
<path d="M0.000984016 13.8243C0.0921394 6.19886 6.33205 -0.02298 14.0579 6.38049e-05C21.738 0.0231076 28.1788 6.34559 27.9962 14.3367C27.8251 21.8185 21.7681 27.877 14.2463 27.998C6.25648 28.1264 -0.0908491 21.6555 0.000984016 13.8243ZM27.1456 14.0124C27.1548 6.75496 21.2927 0.900129 14.0969 0.855058C6.81121 0.80897 0.927787 6.63804 0.857641 13.8501C0.785463 21.26 6.6987 27.0769 13.8586 27.145C21.309 27.2162 27.1483 21.2062 27.1456 14.0124Z" fill="black"/>
<g clip-path="url(#clip0)">
<path d="M6.00005 7.79202C6.22303 7.21107 6.64243 6.99189 7.26434 7.00023C9.03373 7.02526 10.8031 7.0025 12.5725 7.01919C12.7598 7.02071 12.9919 7.11627 13.1262 7.24747C14.1667 8.26224 15.1792 9.30582 16.2213 10.3191C16.4791 10.5701 16.6156 10.8189 16.5724 11.1776C16.5489 11.374 16.5679 11.5758 16.5679 11.7843C17.5523 11.7843 18.4973 11.801 19.4407 11.7783C20.0444 11.7639 20.5435 11.9694 20.906 12.4282C21.5006 13.1798 22.074 13.9504 22.6231 14.7353C22.8195 15.016 22.9196 15.3633 23.0637 15.6811C23.0637 16.9454 23.0637 18.2097 23.0637 19.4739C22.8271 20.1224 22.3417 20.3757 21.672 20.3127C21.6439 20.4151 21.628 20.4872 21.6045 20.5577C21.3049 21.4648 20.5526 22.0086 19.6091 22.001C18.6588 21.9934 17.9679 21.486 17.6933 20.538C17.619 20.2824 17.4757 20.3105 17.3028 20.3105C15.952 20.3105 14.6005 20.3105 13.2498 20.3105C12.9881 20.3105 12.7257 20.3105 12.4792 20.3105C12.0189 21.5035 11.4045 22.0025 10.4285 22.001C9.40383 22.0002 8.87142 21.5649 8.37845 20.3105C8.04778 20.3105 7.70574 20.287 7.36824 20.3158C6.73041 20.3689 6.27081 20.136 5.99854 19.5505C6.00005 15.6303 6.00005 11.7108 6.00005 7.79202ZM12.4959 11.082C12.4959 10.0051 12.4891 8.99563 12.5005 7.98541C12.5035 7.73665 12.4231 7.66005 12.1759 7.66157C10.521 7.67067 8.86612 7.66384 7.21049 7.66764C6.78046 7.6684 6.68263 7.77382 6.68263 8.20991C6.68187 11.8367 6.68187 15.4634 6.68263 19.0902C6.68263 19.1531 6.65836 19.2366 6.68945 19.276C6.78729 19.4004 6.89878 19.5968 7.01861 19.6067C7.47897 19.6453 7.94464 19.6226 8.405 19.6226C8.65148 18.6071 9.23926 17.9981 10.2722 17.9419C11.4576 17.8775 12.1448 18.5267 12.4694 19.5945C13.6222 19.5945 14.7514 19.5945 15.9095 19.5945C15.9095 19.414 15.9095 19.2646 15.9095 19.1144C15.9095 16.6124 15.9095 14.1104 15.9095 11.6084C15.9095 11.0828 15.9095 11.0828 15.3779 11.082C14.4337 11.082 13.4887 11.082 12.4959 11.082ZM21.669 19.593C22.259 19.6628 22.3811 19.5604 22.3826 19.0174C22.3834 18.714 22.3826 18.4106 22.3826 18.1073C22.3826 17.5953 22.3826 17.0834 22.3826 16.5426C21.4187 16.5426 20.5109 16.5434 19.603 16.5426C18.6467 16.5411 18.2857 16.1748 18.2849 15.2093C18.2849 14.303 18.2849 13.3967 18.2849 12.4449C17.9095 12.4449 17.5712 12.4442 17.2337 12.4449C16.6733 12.4464 16.5686 12.5481 16.5686 13.1047C16.5679 15.1388 16.5679 17.1737 16.5694 19.2077C16.5694 19.3405 16.5823 19.4732 16.5906 19.6241C16.8371 19.6241 17.0404 19.6051 17.2391 19.6287C17.5242 19.6628 17.6524 19.5725 17.7343 19.2775C17.9118 18.6382 18.3532 18.2203 18.9902 18.0238C20.1908 17.6537 21.2799 18.2855 21.669 19.593ZM18.9713 12.4912C18.9713 13.4908 18.9675 14.4858 18.9736 15.4809C18.9758 15.7653 19.1692 15.8737 19.4263 15.8798C19.7289 15.8874 20.0323 15.8821 20.3349 15.8821C20.9864 15.8821 21.6379 15.8821 22.3789 15.8821C22.2674 15.5924 22.2241 15.3481 22.0937 15.1654C21.5545 14.4047 21.0038 13.6516 20.4282 12.9182C20.0664 12.4586 19.5613 12.3524 18.9713 12.4912ZM18.2887 19.9821C18.2933 20.7792 18.8636 21.3487 19.6463 21.3374C20.4138 21.3268 21.0145 20.7261 21.016 19.9684C21.0167 19.1926 20.3956 18.5843 19.6144 18.5972C18.8211 18.6101 18.2842 19.1721 18.2887 19.9821ZM9.07165 19.9699C9.07392 20.7731 9.63515 21.3396 10.4269 21.3396C11.1854 21.3389 11.8004 20.7215 11.7982 19.9631C11.7959 19.1994 11.1854 18.5957 10.4194 18.5995C9.62074 18.6025 9.06937 19.1637 9.07165 19.9699ZM13.1565 8.32064C13.1565 8.96605 13.1512 9.5925 13.1641 10.2182C13.1656 10.2849 13.2703 10.4055 13.3286 10.407C13.965 10.4207 14.602 10.4154 15.2429 10.4154C14.5414 9.71082 13.8694 9.03507 13.1565 8.32064Z" fill="black"/>
<path d="M14.1727 12.4893C14.1727 12.7137 14.1727 12.8988 14.1727 13.1059C12.2539 13.1059 10.3526 13.1059 8.42468 13.1059C8.42468 12.8996 8.42468 12.7062 8.42468 12.4893C10.342 12.4893 12.2433 12.4893 14.1727 12.4893Z" fill="black"/>
<path d="M8.42249 15.9023C10.3481 15.9023 12.2495 15.9023 14.1705 15.9023C14.1705 16.1147 14.1705 16.3096 14.1705 16.5227C12.2487 16.5227 10.3474 16.5227 8.42249 16.5227C8.42249 16.318 8.42249 16.1337 8.42249 15.9023Z" fill="black"/>
<path d="M12.4442 14.8249C11.1086 14.8249 9.77534 14.8249 8.42004 14.8249C8.42004 14.6148 8.42004 14.4176 8.42004 14.1924C9.75031 14.1924 11.0821 14.1924 12.4442 14.1924C12.4442 14.3926 12.4442 14.5974 12.4442 14.8249Z" fill="black"/>
</g>
<defs>
<clipPath id="clip0">
<rect width="17.0644" height="15" fill="white" transform="translate(6 7)"/>
</clipPath>
</defs>
</svg>
