<svg width="28" height="28" viewBox="0 0 28 28" fill="none" xmlns="http://www.w3.org/2000/svg">
<path d="M0.000984016 13.8243C0.0921394 6.19886 6.33205 -0.02298 14.0579 6.38049e-05C21.738 0.0231076 28.1788 6.34559 27.9962 14.3367C27.8251 21.8185 21.7681 27.877 14.2463 27.998C6.25648 28.1264 -0.0908491 21.6555 0.000984016 13.8243ZM27.1456 14.0124C27.1548 6.75496 21.2927 0.900129 14.0969 0.855058C6.81121 0.80897 0.927787 6.63804 0.857641 13.8501C0.785463 21.26 6.6987 27.0769 13.8586 27.145C21.309 27.2162 27.1483 21.2062 27.1456 14.0124Z" fill="black"/>
<g clip-path="url(#clip0)">
<path d="M14.2291 6C14.2853 6 14.3413 6 14.3975 6C14.6416 6.02939 14.8442 6.14204 15.0371 6.29112C15.4306 6.59526 15.8286 6.89418 16.2339 7.1824C16.7995 7.58449 17.4478 7.74781 18.1286 7.80597C18.3593 7.82571 18.5898 7.85005 18.8209 7.85847C19.0678 7.8675 19.3155 7.85893 19.5627 7.86031C19.669 7.86092 19.778 7.85388 19.8813 7.87362C20.3232 7.95827 20.6736 8.32929 20.6653 8.82857C20.6453 10.0469 20.7051 11.2664 20.6111 12.4837C20.5902 12.7544 20.5689 13.0258 20.5302 13.2944C20.4803 13.6401 20.4198 13.9844 20.3514 14.3268C20.1919 15.1258 19.9435 15.8971 19.6005 16.6365C19.0663 17.7882 18.3288 18.7847 17.3358 19.5843C16.6259 20.156 15.8405 20.5887 14.9693 20.8603C14.7869 20.917 14.5983 20.9539 14.4125 20.9998C14.3462 20.9998 14.2798 20.9998 14.2135 20.9998C14.1546 20.9879 14.0952 20.9778 14.0367 20.9639C13.5296 20.8439 13.0473 20.6567 12.5846 20.4187C11.7454 19.9867 11.0179 19.4123 10.3934 18.7048C9.99496 18.2535 9.65241 17.7632 9.36297 17.2365C8.79772 16.2081 8.44629 15.1064 8.24058 13.954C8.14966 13.4438 8.08353 12.9305 8.04848 12.414C8.02063 12.0026 8.01052 11.5895 8.00455 11.177C7.99705 10.6543 8.00042 10.1316 8.00211 9.60872C8.00302 9.30046 7.99705 8.99143 8.01665 8.68423C8.04251 8.27862 8.39884 7.92367 8.82787 7.87026C8.96777 7.85281 9.1118 7.86643 9.25384 7.86765C9.83746 7.8724 10.4177 7.83903 10.9952 7.74765C11.44 7.67725 11.8612 7.54714 12.2534 7.32444C12.7219 7.05842 13.1457 6.7324 13.5451 6.37224C13.6612 6.26755 13.7604 6.1373 13.9164 6.08571C14.0188 6.05173 14.1247 6.02816 14.2291 6ZM8.97864 8.78556C8.97864 8.82306 8.97848 8.84296 8.97864 8.86286C8.98353 9.82684 8.98369 10.7908 8.99624 11.7546C9.00068 12.0951 9.02348 12.4365 9.06052 12.7751C9.10124 13.1475 9.16017 13.5182 9.22476 13.8874C9.34751 14.5895 9.54711 15.2706 9.82185 15.9285C10.3441 17.1791 11.1066 18.2484 12.2058 19.0601C12.7859 19.4885 13.4177 19.8152 14.1137 20.0109C14.1973 20.0345 14.2946 20.066 14.3719 20.0444C14.6416 19.9696 14.9119 19.8886 15.1701 19.7816C15.8177 19.5135 16.3986 19.1359 16.9231 18.6701C17.3906 18.2552 17.7933 17.7854 18.1363 17.2638C18.6587 16.4697 19.0195 15.6044 19.265 14.6891C19.4419 14.0297 19.563 13.3599 19.617 12.6793C19.6495 12.2709 19.6847 11.8616 19.6899 11.4525C19.701 10.5828 19.6935 9.71296 19.6935 8.84327C19.6935 8.82857 19.6909 8.81403 19.6899 8.80133C19.5631 8.80133 19.441 8.80301 19.319 8.80102C19.0387 8.79643 18.7577 8.79964 18.4782 8.78143C18.2099 8.76413 17.9411 8.73536 17.676 8.69066C17.375 8.64 17.0705 8.58903 16.7803 8.49765C16.0623 8.27128 15.445 7.85832 14.8576 7.39929C14.6714 7.25388 14.4942 7.0973 14.3107 6.94408C14.3013 6.95173 14.2888 6.96046 14.2781 6.97087C13.9975 7.24561 13.6923 7.49082 13.3736 7.71934C12.925 8.04107 12.4539 8.32301 11.9254 8.49413C11.347 8.68117 10.747 8.7502 10.144 8.78158C9.76017 8.80194 9.37461 8.78556 8.97864 8.78556Z" fill="black"/>
<path d="M13.6234 13.5413C14.9728 12.2935 16.3177 11.0499 17.6686 9.80078C17.8935 10.0437 18.1157 10.284 18.3439 10.5307C16.7518 12.0027 15.1639 13.4707 13.5694 14.945C12.7193 14.0262 11.8704 13.1087 11.0166 12.1859C11.2587 11.9617 11.4997 11.7387 11.7462 11.5103C12.37 12.1852 12.9938 12.86 13.6234 13.5413Z" fill="black"/>
</g>
<defs>
<clipPath id="clip0">
<rect width="12.6663" height="15" fill="white" transform="translate(8 6)"/>
</clipPath>
</defs>
</svg>
