<svg width="28" height="28" viewBox="0 0 28 28" fill="none" xmlns="http://www.w3.org/2000/svg">
<path d="M0.000984016 13.8243C0.0921394 6.19886 6.33205 -0.02298 14.0579 6.38049e-05C21.738 0.0231076 28.1788 6.34559 27.9962 14.3367C27.8251 21.8185 21.7681 27.877 14.2463 27.998C6.25648 28.1264 -0.0908491 21.6555 0.000984016 13.8243ZM27.1456 14.0124C27.1548 6.75496 21.2927 0.900129 14.0969 0.855058C6.81121 0.80897 0.927787 6.63804 0.857641 13.8501C0.785463 21.26 6.6987 27.0769 13.8586 27.145C21.309 27.2162 27.1483 21.2062 27.1456 14.0124Z" fill="black"/>
<g clip-path="url(#clip0)">
<path d="M7.40829 7.40586C7.40829 7.26747 7.40895 7.14785 7.40829 7.02824C7.405 6.40118 7.7925 6.00247 8.4166 6.00083C9.42688 5.99852 10.4375 6.00181 11.4478 6.00148C14.2592 6.00115 17.0705 5.99951 19.8823 6.00115C20.0292 6.00115 20.1821 6.00445 20.3222 6.043C20.7429 6.15866 21.0026 6.52903 21.0026 6.98244C21.0029 10.0301 21.0036 13.0777 21.0029 16.125C21.0029 16.7346 21.0125 17.3446 20.9914 17.9535C20.9314 19.6956 19.5557 21.0021 17.8136 20.9995C14.9419 20.9952 12.0699 20.9952 9.1982 21.0002C7.59051 21.0031 6.27313 19.8983 6.04016 18.3051C5.98349 17.9169 6.00458 17.5162 6.00392 17.1212C6.00095 14.4745 6.00194 11.8279 6.00227 9.18127C6.00227 8.91766 6.00194 8.65405 6.00458 8.39044C6.00985 7.80391 6.4046 7.40916 6.9885 7.40586C7.11964 7.4052 7.25112 7.40586 7.40829 7.40586ZM6.94335 8.35386C6.94335 8.40988 6.94335 8.45799 6.94335 8.5061C6.94335 11.6361 6.94072 14.7658 6.94467 17.8958C6.94632 19.0959 7.91475 20.0568 9.11812 20.0578C12.0228 20.0604 14.9277 20.0604 17.8324 20.0574C19.1214 20.0561 20.0605 19.1065 20.0605 17.8164C20.0605 14.2363 20.0609 10.6562 20.0609 7.07602C20.0609 7.03417 20.0546 6.99232 20.0516 6.95212C16.1453 6.95212 12.2501 6.95212 8.34608 6.95212C8.34608 7.74394 8.34575 8.52356 8.34608 9.30286C8.34707 11.8177 8.34839 14.3325 8.34938 16.847C8.34938 17.1488 8.35234 17.451 8.34542 17.7528C8.34147 17.9206 8.24723 18.0151 8.10982 18.0135C7.97274 18.0118 7.88905 17.9163 7.8785 17.7472C7.87686 17.7199 7.87785 17.6922 7.87785 17.6649C7.87785 14.6614 7.87785 11.6579 7.87785 8.65438C7.87785 8.55717 7.87785 8.4603 7.87785 8.35353C7.55756 8.35386 7.25869 8.35386 6.94335 8.35386Z" fill="black"/>
<path d="M19.1165 12.0814C17.0877 12.0814 15.0711 12.0814 13.0449 12.0814C13.0449 10.9937 13.0449 9.91585 13.0449 8.82715C15.0704 8.82715 17.087 8.82715 19.1165 8.82715C19.1165 9.90695 19.1165 10.9848 19.1165 12.0814Z" fill="black"/>
<path d="M19.1113 14.4492C19.1795 14.9059 19.1795 14.9056 18.7538 14.9056C15.6679 14.9056 12.5817 14.9056 9.49581 14.9056C9.43123 14.9056 9.36697 14.9056 9.29382 14.9056C9.29382 14.7464 9.29382 14.6057 9.29382 14.4492C12.5675 14.4492 15.8402 14.4492 19.1113 14.4492Z" fill="black"/>
<path d="M19.1205 13.0479C19.1205 13.1998 19.1205 13.3401 19.1205 13.4904C15.8419 13.4904 12.5725 13.4904 9.29382 13.4904C9.29382 13.3434 9.29382 13.2027 9.29382 13.0479C12.5632 13.0479 15.8326 13.0479 19.1205 13.0479Z" fill="black"/>
<path d="M9.29346 16.2958C9.29346 16.1412 9.29346 16.0005 9.29346 15.8506C12.5671 15.8506 15.8326 15.8506 19.1135 15.8506C19.1135 15.9943 19.1135 16.1382 19.1135 16.2958C15.8431 16.2958 12.5741 16.2958 9.29346 16.2958Z" fill="black"/>
<path d="M19.1201 17.2627C19.1201 17.4162 19.1201 17.5563 19.1201 17.7075C15.8431 17.7075 12.5757 17.7075 9.29639 17.7075C9.29639 17.5635 9.29639 17.4189 9.29639 17.2627C12.5661 17.2627 15.8339 17.2627 19.1201 17.2627Z" fill="black"/>
<path d="M12.0848 10.2373C12.0848 10.38 12.0848 10.521 12.0848 10.6765C11.1559 10.6765 10.2332 10.6765 9.2981 10.6765C9.2981 10.5375 9.2981 10.3981 9.2981 10.2373C10.2187 10.2373 11.148 10.2373 12.0848 10.2373Z" fill="black"/>
<path d="M12.0845 8.8291C12.0845 8.97738 12.0845 9.11775 12.0845 9.27098C11.1586 9.27098 10.235 9.27098 9.29785 9.27098C9.29785 9.13093 9.29785 8.98661 9.29785 8.8291C10.2175 8.8291 11.1408 8.8291 12.0845 8.8291Z" fill="black"/>
<path d="M12.0835 11.6357C12.0835 11.7863 12.0835 11.9267 12.0835 12.0789C11.151 12.0789 10.2267 12.0789 9.29419 12.0789C9.29419 11.9307 9.29419 11.79 9.29419 11.6357C10.2175 11.6357 11.1414 11.6357 12.0835 11.6357Z" fill="black"/>
</g>
<defs>
<clipPath id="clip0">
<rect width="15.0046" height="15" fill="white" transform="translate(6 6)"/>
</clipPath>
</defs>
</svg>
