<svg width="28" height="28" viewBox="0 0 28 28" fill="none" xmlns="http://www.w3.org/2000/svg">
<path d="M0.000984016 13.8243C0.0921394 6.19886 6.33205 -0.02298 14.0579 6.38049e-05C21.738 0.0231076 28.1788 6.34559 27.9962 14.3367C27.8251 21.8185 21.7681 27.877 14.2463 27.998C6.25648 28.1264 -0.0908491 21.6555 0.000984016 13.8243ZM27.1456 14.0124C27.1548 6.75496 21.2927 0.900129 14.0969 0.855058C6.81121 0.80897 0.927787 6.63804 0.857641 13.8501C0.785463 21.26 6.6987 27.0769 13.8586 27.145C21.309 27.2162 27.1483 21.2062 27.1456 14.0124Z" fill="black"/>
<path d="M12.084 19.1124C11.9677 18.8726 11.865 18.6573 11.7594 18.4431C10.4855 15.8614 9.21118 13.2799 7.93706 10.6982C7.71446 10.2471 7.49065 9.79627 7.2726 9.343C7.23095 9.25667 7.17757 9.21806 7.08637 9.2394C6.58731 9.35523 6.14185 9.55357 5.88694 10.0375C5.77156 10.2567 5.5097 10.3567 5.28566 10.2637C5.05803 10.1694 4.94313 9.90683 5.02787 9.66652C5.14827 9.3243 5.39337 9.08184 5.67343 8.86959C6.05784 8.57821 6.48414 8.37292 6.96382 8.31104C7.16129 8.28562 7.36882 8.30889 7.56845 8.33503C7.76233 8.36045 7.88799 8.48468 7.97656 8.66526C8.88373 10.515 9.7957 12.3626 10.7072 14.2105C11.6134 16.0475 12.5208 17.8841 13.4278 19.7206C13.507 19.8811 13.5075 19.8806 13.6626 19.8039C16.1933 18.551 18.7243 17.2991 21.2539 16.0439C21.4174 15.9628 21.5768 15.9247 21.7441 16.0091C21.9107 16.0931 21.9995 16.2343 22 16.4233C22.0005 16.6166 21.9138 16.7591 21.7391 16.8454C20.5631 17.4272 19.3874 18.0093 18.2114 18.5915C16.7068 19.3364 15.2024 20.0823 13.6966 20.825C13.5929 20.8761 13.5352 20.9317 13.5147 21.0586C13.3777 21.8982 12.6034 22.5153 11.7886 22.4493C10.8525 22.3736 10.1186 21.6726 10.1732 20.6639C10.2198 19.8012 10.9583 19.1172 11.82 19.1129C11.899 19.1122 11.9782 19.1124 12.084 19.1124ZM11.8602 20.0538C11.4346 20.054 11.111 20.3626 11.1091 20.7706C11.1074 21.1876 11.4511 21.5107 11.8975 21.5119C12.2719 21.5128 12.6144 21.1687 12.6024 20.7821C12.5912 20.4087 12.3262 20.0473 11.8602 20.0538Z" fill="black"/>
<path d="M13.9678 18.6052C13.924 18.5534 13.8659 18.5062 13.8355 18.4453C13.448 17.6673 13.0645 16.8874 12.6801 16.1077C12.5197 15.7823 12.3589 15.4571 12.199 15.1314C12.1264 14.9834 12.1439 14.9312 12.2928 14.8575C14.3128 13.8572 16.3327 12.8572 18.3527 11.8571C18.4982 11.7852 18.5554 11.8046 18.6272 11.9499C19.172 13.055 19.7166 14.1601 20.2611 15.2652C20.337 15.4192 20.3193 15.4712 20.1654 15.5475C18.149 16.5461 16.1326 17.5443 14.1163 18.5424C14.077 18.5616 14.0361 18.5765 13.9678 18.6052ZM14.437 14.6786C14.4356 14.8762 14.6318 14.9949 14.8214 14.9021C15.4983 14.5702 16.1738 14.2349 16.8486 13.8987C16.9941 13.826 17.047 13.6788 16.9845 13.5486C16.9216 13.4176 16.7746 13.367 16.6279 13.4308C16.5367 13.4706 16.4486 13.5184 16.3593 13.5625C15.7872 13.8455 15.2154 14.1292 14.6431 14.4115C14.5296 14.4673 14.4387 14.5376 14.437 14.6786Z" fill="black"/>
<path d="M9.76342 10.1765C9.81153 10.1331 9.85366 10.0748 9.91087 10.0462C10.5981 9.70186 11.2872 9.36179 11.9761 9.02076C13.3038 8.36341 14.6313 7.70629 15.959 7.04917C16.1276 6.96572 16.1762 6.98202 16.2583 7.14822C16.7999 8.24589 17.3414 9.34356 17.8828 10.4412C17.9637 10.6053 17.9481 10.652 17.7861 10.7324C15.7733 11.7293 13.7605 12.7263 11.7477 13.723C11.5845 13.8038 11.5373 13.788 11.4574 13.6261C10.9138 12.5248 10.3704 11.4236 9.82733 10.322C9.80842 10.2832 9.79262 10.2427 9.76342 10.1765ZM12.3488 10.1194C12.3749 10.11 12.4249 10.0966 12.4706 10.0743C12.6894 9.96806 12.9072 9.85918 13.1252 9.75126C13.5685 9.53182 14.0121 9.31287 14.4549 9.09223C14.6203 9.00973 14.6787 8.8584 14.6035 8.71954C14.5317 8.58692 14.3824 8.54999 14.2175 8.63129C13.5592 8.95577 12.9017 9.28217 12.2444 9.60833C12.2126 9.62416 12.1812 9.6431 12.1542 9.66613C12.061 9.74527 12.0381 9.84815 12.0802 9.95847C12.1211 10.0652 12.2078 10.118 12.3488 10.1194Z" fill="black"/>
</svg>
