<svg width="28" height="28" viewBox="0 0 28 28" fill="none" xmlns="http://www.w3.org/2000/svg">
<path d="M0.000984016 13.8243C0.0921394 6.19886 6.33205 -0.02298 14.0579 6.38049e-05C21.738 0.0231076 28.1788 6.34559 27.9962 14.3367C27.8251 21.8185 21.7681 27.877 14.2463 27.998C6.25648 28.1264 -0.0908491 21.6555 0.000984016 13.8243ZM27.1456 14.0124C27.1548 6.75496 21.2927 0.900129 14.0969 0.855058C6.81121 0.80897 0.927787 6.63804 0.857641 13.8501C0.785463 21.26 6.6987 27.0769 13.8586 27.145C21.309 27.2162 27.1483 21.2062 27.1456 14.0124Z" fill="black"/>
<g clip-path="url(#clip0)">
<path d="M13.4968 18.9592C13.4968 19.5145 13.4964 20.0415 13.4968 20.5681C13.4972 20.9456 13.7408 21.1121 14.0617 20.9169C14.378 20.7244 14.6574 20.686 14.9628 20.9177C15.1281 21.0431 15.3107 21.0145 15.4712 20.9C15.7449 20.7052 16.0093 20.6898 16.2846 20.897C16.474 21.0394 16.6747 21.019 16.86 20.886C17.1096 20.7071 17.3503 20.6879 17.6052 20.8781C17.8153 21.0345 18.0273 21.0058 18.2537 20.8819C18.3843 20.8103 18.509 20.6521 18.6897 20.741C19.3939 21.0876 19.1868 21.0755 19.8744 20.7467C19.926 20.7222 20.0077 20.7259 20.062 20.7482C20.2122 20.8103 20.3523 20.8966 20.5022 20.9599C20.7488 21.0638 20.9763 20.9154 20.9913 20.648C20.994 20.5979 20.9921 20.5474 20.9921 20.4973C20.9921 17.1816 20.9838 13.8663 20.9996 10.5507C21.0023 9.95623 20.602 9.39156 19.8496 9.3991C18.4935 9.41303 17.1371 9.40286 15.7811 9.40286C15.7077 9.40286 15.6346 9.40286 15.5416 9.40286C15.5416 9.31057 15.5416 9.24315 15.5416 9.17534C15.5416 8.27127 15.5423 7.36683 15.5412 6.46276C15.5405 6.04199 15.307 5.87926 14.953 6.09284C14.6446 6.27855 14.3776 6.30229 14.0865 6.08682C13.9133 5.95874 13.7265 5.98021 13.5612 6.10188C13.2848 6.30605 13.0193 6.30003 12.7478 6.09774C12.5369 5.94066 12.3272 6.00093 12.1374 6.13051C11.9058 6.2891 11.6896 6.3102 11.4584 6.13616C11.2306 5.96477 10.9915 5.96891 10.7648 6.13579C10.5407 6.3004 10.3257 6.3053 10.1031 6.13918C9.86664 5.96251 9.62601 5.97155 9.39253 6.14144C9.17525 6.29927 8.96814 6.29852 8.74784 6.1437C8.30575 5.8333 8.01918 6.06158 8.03047 6.58292C8.05683 7.78797 8.03876 8.99415 8.03876 10.1996C8.03876 10.273 8.03876 10.3469 8.03876 10.4316C8.27637 10.4316 8.4929 10.4316 8.73127 10.4316C8.73127 9.26914 8.73127 8.1108 8.73127 6.90199C9.08073 7.15588 9.3368 6.93852 9.60266 6.80178C9.70923 6.74679 9.80036 6.73699 9.89902 6.8063C9.91936 6.82062 9.94609 6.82552 9.96605 6.84021C10.2782 7.06848 10.5878 7.06434 10.9 6.83795C11.0329 6.74151 11.1696 6.72494 11.3134 6.83079C11.3831 6.88202 11.4716 6.90651 11.5469 6.95058C11.7145 7.0489 11.8839 7.05869 12.0425 6.94531C12.3283 6.74038 12.6036 6.72305 12.8947 6.93965C13.0619 7.06396 13.2524 7.05907 13.4219 6.93815C13.6968 6.74189 13.96 6.72343 14.239 6.93287C14.4311 7.07715 14.6389 7.04249 14.8476 6.90688C14.8476 7.74993 14.8476 8.56359 14.8476 9.40362C14.7436 9.40362 14.6457 9.40362 14.5474 9.40362C14.2145 9.40362 13.8813 9.41567 13.5491 9.39985C13.2599 9.38629 12.9975 9.43903 12.738 9.57125C12.3509 9.76901 12.1197 10.0504 12.1336 10.5024C12.1396 10.6961 12.1347 10.8901 12.1347 11.1131C12.0474 11.1131 11.9747 11.1131 11.9016 11.1131C10.5268 11.1131 9.15153 11.11 7.77666 11.1142C6.92825 11.1168 6.2779 11.5949 6.0674 12.372C6.02372 12.5328 6.00489 12.7053 6.00414 12.8726C5.99924 14.3104 6.00037 15.7487 6.00188 17.1865C6.00301 18.2092 6.74373 18.9551 7.77139 18.9574C9.59852 18.9615 11.4256 18.9585 13.2528 18.9585C13.3258 18.9592 13.4 18.9592 13.4968 18.9592ZM20.3067 20.1044C20.0047 19.8678 19.7569 20.0098 19.5189 20.1534C19.3563 20.2517 19.2109 20.2679 19.0542 20.1534C19.0094 20.1206 18.9511 20.1067 18.9044 20.0758C18.7044 19.9447 18.5007 19.9349 18.3071 20.0758C18.048 20.2645 17.7969 20.2732 17.5408 20.0769C17.531 20.0694 17.5182 20.066 17.5077 20.0592C17.3311 19.9466 17.1477 19.9375 16.979 20.0603C16.6886 20.2716 16.413 20.2622 16.1264 20.0535C15.9765 19.9443 15.8003 19.9326 15.6508 20.0449C15.3364 20.2811 15.0456 20.2438 14.7267 20.043C14.6265 19.9801 14.4571 20.0234 14.3196 20.0264C14.2763 20.0272 14.2337 20.055 14.1776 20.0754C14.1776 19.9782 14.1776 19.9029 14.1776 19.8279C14.1776 16.8644 14.1788 13.9006 14.1754 10.9371C14.175 10.6625 14.1441 10.3879 14.1268 10.1035C14.1498 10.1035 14.2183 10.1035 14.2868 10.1035C15.5988 10.1035 16.9112 10.1035 18.2232 10.1035C18.7944 10.1035 19.3657 10.102 19.9369 10.1046C20.1678 10.1058 20.2834 10.2158 20.3041 10.4433C20.3086 10.493 20.3064 10.5435 20.3064 10.594C20.3064 13.6893 20.3064 16.785 20.3064 19.8803C20.3067 19.9405 20.3067 20.0008 20.3067 20.1044ZM6.69741 14.5365C8.97567 14.5365 11.2306 14.5365 13.4825 14.5365C13.4825 15.7833 13.4825 17.0159 13.4825 18.2488C13.4437 18.2526 13.4188 18.2571 13.394 18.2571C11.4931 18.2575 9.59249 18.2608 7.69156 18.2552C7.10674 18.2533 6.69552 17.8246 6.68875 17.2133C6.67933 16.36 6.68611 15.5068 6.68649 14.6536C6.68686 14.6171 6.69326 14.5809 6.69741 14.5365ZM13.4878 13.1468C11.2159 13.1468 8.96061 13.1468 6.7072 13.1468C6.56523 12.2533 7.16586 11.7847 7.83767 11.7941C9.64446 11.819 11.4516 11.8028 13.2588 11.8028C13.3322 11.8028 13.4057 11.8028 13.4878 11.8028C13.4878 12.2586 13.4878 12.6956 13.4878 13.1468ZM12.819 11.1036C12.819 10.8607 12.8118 10.6411 12.8212 10.4222C12.8291 10.2388 12.9598 10.1152 13.1311 10.1054C13.3168 10.0949 13.4727 10.2037 13.4866 10.3913C13.5043 10.6256 13.4908 10.8622 13.4908 11.1036C13.2603 11.1036 13.0494 11.1036 12.819 11.1036Z" fill="black"/>
<path d="M12.9817 8.04085C12.7184 8.04085 12.4552 8.03859 12.192 8.04161C11.9438 8.04424 11.7883 8.18098 11.7879 8.39005C11.7876 8.59798 11.9401 8.73812 12.1912 8.74038C12.7177 8.7449 13.2441 8.74452 13.7706 8.74075C14.0368 8.73887 14.1856 8.60251 14.1811 8.38139C14.1765 8.17081 14.0255 8.04349 13.7713 8.04123C13.5081 8.03897 13.2449 8.04085 12.9817 8.04085Z" fill="black"/>
<path d="M10.0767 8.04192C9.97048 8.04192 9.86354 8.03702 9.75772 8.04305C9.55249 8.05472 9.4045 8.19711 9.39772 8.38169C9.39132 8.56063 9.53554 8.72411 9.73964 8.73617C9.97011 8.7501 10.2028 8.74973 10.4337 8.7373C10.6453 8.72599 10.7816 8.57758 10.7816 8.39036C10.7816 8.19561 10.6332 8.05246 10.4145 8.04267C10.3022 8.03777 10.1893 8.04192 10.0767 8.04192Z" fill="black"/>
<path d="M10.0979 10.1035C10.2041 10.1035 10.3106 10.1084 10.4168 10.1028C10.6345 10.0911 10.7829 9.94608 10.7817 9.75246C10.781 9.566 10.6398 9.41758 10.4315 9.40778C10.2067 9.39761 9.98114 9.39837 9.75633 9.40741C9.55072 9.41569 9.40235 9.56487 9.39783 9.74681C9.39293 9.93478 9.54771 10.09 9.76009 10.1024C9.87231 10.1088 9.98528 10.1035 10.0979 10.1035Z" fill="black"/>
<path d="M12.819 11.1034C13.0498 11.1034 13.2603 11.1034 13.4911 11.1034C13.4911 10.8619 13.5047 10.6254 13.487 10.3911C13.4727 10.2035 13.3172 10.095 13.1315 10.1051C12.9605 10.1149 12.8295 10.2385 12.8216 10.4219C12.8118 10.6408 12.819 10.8604 12.819 11.1034Z" fill="white"/>
<path d="M18.4362 13.1605C18.7122 13.1605 18.9879 13.1623 19.2639 13.1597C19.4846 13.1574 19.633 13.0199 19.6352 12.8222C19.6375 12.624 19.4921 12.4809 19.2703 12.4794C18.7122 12.4756 18.1542 12.4756 17.5961 12.4794C17.3799 12.4809 17.227 12.6331 17.2316 12.8252C17.2361 13.0196 17.389 13.1574 17.6089 13.1593C17.8845 13.1623 18.1602 13.1605 18.4362 13.1605Z" fill="black"/>
<path d="M18.4303 15.1979C18.1671 15.1979 17.9035 15.1968 17.6402 15.1983C17.3936 15.1998 17.232 15.3377 17.2317 15.543C17.2313 15.7468 17.3902 15.8847 17.6402 15.8858C18.1731 15.8884 18.7063 15.8888 19.2395 15.8854C19.4907 15.8839 19.6417 15.7441 19.6357 15.5332C19.6297 15.3309 19.4772 15.1998 19.2395 15.1979C18.9695 15.1964 18.6999 15.1979 18.4303 15.1979Z" fill="black"/>
<path d="M18.7635 16.5566C18.6008 16.5566 18.4374 16.5514 18.2751 16.5581C18.0687 16.5668 17.9203 16.7092 17.9124 16.8942C17.9045 17.0742 18.0472 17.2426 18.2529 17.2501C18.6031 17.2633 18.9544 17.2637 19.3046 17.249C19.5151 17.2403 19.645 17.0787 19.6356 16.8889C19.6262 16.7009 19.4831 16.5661 19.2711 16.5581C19.1016 16.5514 18.9326 16.5566 18.7635 16.5566Z" fill="black"/>
<path d="M15.5392 16.5579C15.4266 16.5579 15.3137 16.5522 15.2018 16.559C15.0007 16.5714 14.864 16.7025 14.8535 16.8833C14.8422 17.0777 14.9642 17.234 15.1751 17.2484C15.4176 17.2649 15.6627 17.2638 15.9053 17.2484C16.1011 17.2359 16.2351 17.0762 16.2317 16.901C16.228 16.7172 16.08 16.5707 15.877 16.5586C15.7648 16.5526 15.6518 16.5579 15.5392 16.5579Z" fill="black"/>
<path d="M18.9428 14.5194C19.0678 14.5198 19.1932 14.5262 19.3175 14.5183C19.5065 14.5062 19.6413 14.3529 19.6353 14.1698C19.6293 13.995 19.4937 13.8481 19.3141 13.8425C19.0704 13.8349 18.8264 13.8353 18.5832 13.8421C18.396 13.8474 18.2518 14.0037 18.2525 14.183C18.2533 14.3552 18.3892 14.5051 18.5681 14.5179C18.6924 14.5262 18.8178 14.519 18.9428 14.5194Z" fill="black"/>
<path d="M15.539 15.8826C15.664 15.8829 15.7894 15.8908 15.9133 15.8811C16.0967 15.8667 16.2292 15.7225 16.2322 15.5496C16.2356 15.3721 16.094 15.2094 15.9069 15.2019C15.6636 15.1917 15.4196 15.1921 15.1763 15.2015C14.9858 15.209 14.8525 15.3623 14.8536 15.5465C14.8547 15.727 14.9767 15.8649 15.1643 15.8803C15.2886 15.8905 15.4139 15.8822 15.539 15.8826Z" fill="black"/>
<path d="M15.5461 13.16C15.6587 13.1604 15.7709 13.1634 15.8835 13.1597C16.0853 13.1529 16.2326 13.0067 16.2322 12.8184C16.2318 12.6364 16.0932 12.4876 15.9008 12.482C15.6575 12.4748 15.4135 12.4744 15.1702 12.4827C14.9861 12.4891 14.8577 12.6315 14.8539 12.8105C14.8502 12.9969 14.9835 13.1476 15.1717 13.1585C15.2956 13.1657 15.421 13.1597 15.5461 13.16Z" fill="black"/>
<path d="M15.5408 14.5192C15.6658 14.5192 15.7908 14.5259 15.9154 14.5176C16.0962 14.5056 16.2295 14.3602 16.2321 14.1854C16.2348 14.005 16.0928 13.8475 15.9057 13.8422C15.6624 13.8351 15.4184 13.8351 15.1751 13.8426C14.9853 13.8483 14.8516 13.9997 14.8539 14.1862C14.8561 14.3651 14.9838 14.5018 15.1664 14.5195C15.1789 14.5207 15.1913 14.5218 15.2037 14.5218C15.3163 14.5218 15.4285 14.5218 15.5411 14.5218C15.5408 14.5207 15.5408 14.5199 15.5408 14.5192Z" fill="black"/>
</g>
<defs>
<clipPath id="clip0">
<rect width="15" height="15" fill="white" transform="matrix(-1 0 0 1 21 6)"/>
</clipPath>
</defs>
</svg>
