<svg width="28" height="28" viewBox="0 0 28 28" fill="none" xmlns="http://www.w3.org/2000/svg">
<path d="M0.000984016 13.8243C0.0921394 6.19886 6.33205 -0.02298 14.0579 6.38049e-05C21.738 0.0231076 28.1788 6.34559 27.9962 14.3367C27.8251 21.8185 21.7681 27.877 14.2463 27.998C6.25648 28.1264 -0.0908491 21.6555 0.000984016 13.8243ZM27.1456 14.0124C27.1548 6.75496 21.2927 0.900129 14.0969 0.855058C6.81121 0.80897 0.927787 6.63804 0.857641 13.8501C0.785463 21.26 6.6987 27.0769 13.8586 27.145C21.309 27.2162 27.1483 21.2062 27.1456 14.0124Z" fill="black"/>
<g clip-path="url(#clip0)">
<path d="M14.7801 9.46584C14.3562 9.98014 13.9542 10.3654 13.6928 10.8278C13.5622 11.059 13.6861 11.4359 13.6962 11.7458C13.9508 11.6956 14.2222 11.6872 14.4551 11.585C15.1587 11.2784 15.8455 10.9367 16.6094 10.5765C16.8205 11.1578 16.9579 11.6085 17.1522 12.0323C17.2343 12.2115 17.4738 12.4813 17.576 12.4545C17.772 12.4042 17.9764 12.1998 18.0752 12.0072C18.2528 11.6654 18.3533 11.2835 18.5544 10.7357C18.8693 11.0724 19.1072 11.3421 19.3635 11.5917C19.526 11.7509 19.717 11.8782 19.8962 12.0206C20.0219 11.7994 20.2514 11.58 20.253 11.3572C20.2581 10.7541 20.1659 10.151 20.1023 9.43066C20.4055 9.56636 20.774 9.66185 21.0572 9.86957C22.7307 11.0958 23.3405 12.828 23.0507 14.7964C22.7743 16.6794 21.4575 17.7984 19.727 18.4266C19.5411 18.4937 19.1541 18.3898 19.0435 18.234C17.3767 15.8903 15.1687 14.1699 12.7246 12.7292C12.2287 12.4377 12.1349 12.173 12.3996 11.6688C12.9155 10.677 13.6057 9.90308 14.7801 9.46584Z" fill="black"/>
<path d="M8.82138 11.9707C9.83489 12.3326 10.8467 12.6944 11.8586 13.0546C11.48 13.8604 11.1633 14.5338 10.8467 15.2072C10.959 15.291 11.0729 15.3764 11.1851 15.4602C11.7463 14.9091 12.3059 14.3562 12.9525 13.7213C13.899 14.4199 14.8991 15.157 15.921 15.9108C15.5424 16.6111 15.1973 17.2527 14.8505 17.8943C14.9393 17.9613 15.0264 18.0283 15.1152 18.0937C15.5742 17.6045 16.0349 17.1137 16.571 16.5424C17.5644 17.514 18.4958 18.5544 18.8962 19.9565C19.0972 20.6651 18.789 21.0504 18.0402 20.9952C17.4371 20.9499 16.8105 20.8394 16.256 20.6099C14.822 20.0168 13.4216 19.3434 11.9474 18.6733C12.3796 17.9111 12.7381 17.2812 13.182 16.4972C11.9708 16.4335 11.6575 17.3649 11.0377 17.8156C9.30049 17.107 7.40413 14.8638 7.46109 13.4667C7.8665 13.5437 8.25347 13.6376 8.64715 13.6845C8.84986 13.7096 9.06094 13.6526 9.26866 13.6325C9.22343 13.4097 9.21338 13.1702 9.12292 12.9675C9.00398 12.7045 8.81803 12.4699 8.66223 12.2237C8.71416 12.1399 8.76777 12.0545 8.82138 11.9707Z" fill="black"/>
<path d="M17.6045 11.9507C17.4085 11.4565 17.2359 11.1449 17.1605 10.8099C17.0215 10.2051 16.6647 10.123 16.1705 10.3324C15.4602 10.634 14.7599 10.9573 13.9139 11.1533C14.2038 10.8266 14.4584 10.4547 14.7918 10.18C15.631 9.48475 15.683 9.19494 15.0079 8.34057C14.9442 8.26016 14.8906 8.17473 14.9425 7.92512C15.5205 8.26519 16.1001 8.60526 16.8305 9.03579C16.7468 7.99715 16.6697 7.02887 16.5859 6.00195C17.0265 6.00195 17.4001 6.00195 17.8708 6.00195C17.8708 6.89988 17.8708 7.77435 17.8708 8.53825C18.7436 8.34727 19.5461 8.17137 20.3485 7.99548C20.377 8.07924 20.4071 8.16132 20.4356 8.24508C20.0168 8.56505 19.598 8.8867 19.2981 9.1162C19.5461 9.86503 19.7504 10.4815 19.9548 11.0997C19.8878 11.1248 19.8208 11.1516 19.7555 11.1767C19.3199 10.8668 18.8827 10.5569 18.3566 10.1816C18.102 10.7747 17.8943 11.2672 17.6045 11.9507Z" fill="black"/>
<path d="M6.36877 12.4022C5.52781 11.9214 4.80579 11.5093 4 11.0486C4.2094 10.7287 4.3987 10.4388 4.62654 10.0921C5.30835 10.5544 5.94829 10.9883 6.54467 11.3937C6.82946 10.6734 7.10755 9.96476 7.38731 9.25781C7.47945 9.28127 7.57159 9.30304 7.66373 9.3265C7.66373 9.79556 7.66373 10.2646 7.66373 10.6382C8.35224 10.8426 8.93857 11.0168 9.52658 11.1894C9.51318 11.248 9.50145 11.3066 9.48805 11.3653C9.01228 11.5227 8.5382 11.6785 7.95522 11.8712C8.28021 12.3838 8.54322 12.7976 8.84476 13.2733C8.66719 13.2733 8.56165 13.2934 8.46616 13.27C7.06734 12.9165 7.06232 12.9132 6.77585 14.3555C6.70047 14.7341 6.66194 15.1211 6.44583 15.5584C6.35035 15.2786 6.20293 15.0055 6.1711 14.7191C6.02703 13.4392 5.88798 13.3085 4.5411 13.265C5.10398 12.9986 5.66685 12.7339 6.36877 12.4022Z" fill="black"/>
</g>
<defs>
<clipPath id="clip0">
<rect width="19.1177" height="15" fill="white" transform="translate(4 6)"/>
</clipPath>
</defs>
</svg>
