<svg width="28" height="28" viewBox="0 0 28 28" fill="none" xmlns="http://www.w3.org/2000/svg">
<path d="M0.000984016 13.8243C0.0921394 6.19886 6.33205 -0.02298 14.0579 6.38049e-05C21.738 0.0231076 28.1788 6.34559 27.9962 14.3367C27.8251 21.8185 21.7681 27.877 14.2463 27.998C6.25648 28.1264 -0.0908491 21.6555 0.000984016 13.8243ZM27.1456 14.0124C27.1548 6.75496 21.2927 0.900129 14.0969 0.855058C6.81121 0.80897 0.927787 6.63804 0.857641 13.8501C0.785463 21.26 6.6987 27.0769 13.8586 27.145C21.309 27.2162 27.1483 21.2062 27.1456 14.0124Z" fill="black"/>
<path d="M25.7724 14.5307C25.6863 14.8471 25.6177 15.1693 25.5101 15.4781C25.2566 16.2027 24.8251 16.8157 24.2685 17.3402C24.1644 17.4385 24.1196 17.5391 24.1185 17.6857C24.1132 18.6115 24.0987 19.5373 24.0853 20.4632C24.0783 20.9348 23.7457 21.1314 23.3235 20.9098C22.3308 20.3893 21.3421 19.8601 20.3454 19.3477C20.204 19.275 20.0197 19.2384 19.8615 19.2524C17.8557 19.4286 16.0023 19.0215 14.3589 17.8217C13.768 17.3908 13.2673 16.8668 12.9096 16.2225C12.8177 16.0567 12.7305 16.0352 12.5624 16.0992C11.447 16.5231 10.2839 16.6464 9.10453 16.5586C8.76142 16.533 8.49448 16.6034 8.21185 16.7651C7.33429 17.2669 6.44858 17.7549 5.56579 18.2474C5.50821 18.28 5.45064 18.3137 5.39074 18.3417C5.0389 18.5056 4.70451 18.2998 4.69811 17.9107C4.68299 16.9331 4.66903 15.9555 4.66322 14.9774C4.66205 14.8326 4.62076 14.7308 4.51608 14.6313C3.88277 14.0312 3.41579 13.3258 3.17735 12.4778C2.77957 11.0629 3.05813 9.77072 3.93511 8.61575C4.98191 7.23805 6.42648 6.50646 8.09379 6.17265C9.69597 5.85221 11.2644 5.97201 12.7869 6.57159C14.1024 7.08976 15.1899 7.89579 15.9104 9.14032C15.9698 9.24267 16.0273 9.25837 16.1384 9.23104C16.7857 9.06937 17.4283 8.87396 18.0854 8.77277C18.749 8.671 19.4242 8.69659 20.0982 8.78324C20.9763 8.89606 21.8155 9.12345 22.6053 9.51542C23.8591 10.1377 24.8727 11.0147 25.431 12.3325C25.5671 12.6541 25.6299 13.0071 25.7276 13.3455C25.7393 13.3857 25.7573 13.424 25.7724 13.4636C25.7724 13.8189 25.7724 14.1748 25.7724 14.5307ZM15.116 9.67011C15.0957 9.63231 15.0835 9.60614 15.0689 9.58113C14.4787 8.58551 13.5941 7.94348 12.5473 7.50615C11.144 6.91994 9.68608 6.81526 8.20894 7.11651C6.82078 7.39914 5.60533 8.01675 4.71032 9.15951C4.2067 9.80212 3.93046 10.5413 3.95256 11.3537C3.9828 12.4546 4.48526 13.349 5.30467 14.0672C5.52682 14.2615 5.63615 14.4784 5.63208 14.7773C5.62103 15.5455 5.62859 16.3138 5.62859 17.1105C5.72571 17.0605 5.79608 17.0268 5.8647 16.989C6.65736 16.547 7.44711 16.0992 8.24558 15.6677C8.37992 15.595 8.55962 15.5444 8.70617 15.5659C9.51278 15.6851 10.3147 15.6584 11.1097 15.506C11.5593 15.4199 11.9989 15.2809 12.4426 15.1664C11.9739 13.4141 12.5485 11.1397 15.116 9.67011ZM23.1543 19.7444C23.1543 18.9447 23.1577 18.1899 23.1519 17.4344C23.1502 17.1797 23.2496 16.9895 23.4305 16.8133C23.6835 16.5662 23.9411 16.3149 24.147 16.03C25.0995 14.7128 25.0542 13.0931 24.0336 11.8335C22.885 10.4157 21.3189 9.83062 19.5574 9.68988C18.895 9.63696 18.2303 9.67593 17.5725 9.81085C16.2123 10.09 15.0242 10.6628 14.0966 11.73C13.0445 12.9408 12.9416 14.7116 13.8913 16.0032C14.9823 17.4873 16.5339 18.1253 18.3029 18.2986C18.8787 18.355 19.4666 18.2736 20.0488 18.2736C20.218 18.2736 20.4047 18.305 20.5536 18.3806C21.4131 18.8191 22.2633 19.2745 23.1543 19.7444Z" fill="black"/>
<path d="M19.0293 14.5334C19.9033 14.5334 20.7774 14.5317 21.6515 14.534C22.0371 14.5352 22.2487 14.7422 22.2185 15.076C22.1947 15.3342 21.9934 15.4924 21.6649 15.5006C21.4282 15.5064 21.1909 15.5017 20.9536 15.5017C19.4573 15.5017 17.961 15.5023 16.4652 15.5011C16.1442 15.5011 15.9366 15.3895 15.8639 15.183C15.7406 14.8347 15.9866 14.5358 16.4076 14.5334C17.0962 14.5294 17.7853 14.5323 18.4745 14.5323C18.6588 14.5334 18.8443 14.5334 19.0293 14.5334Z" fill="black"/>
<path d="M19.0165 13.3766C18.1133 13.3766 17.2102 13.3812 16.307 13.3742C15.9354 13.3713 15.7231 13.0131 15.8912 12.6938C15.9976 12.492 16.1773 12.4391 16.3925 12.4391C17.9173 12.442 19.4427 12.4408 20.9676 12.4408C21.2194 12.4408 21.4712 12.4379 21.7224 12.4414C22.026 12.4455 22.2261 12.6345 22.2266 12.9107C22.2272 13.1916 22.0382 13.376 21.7253 13.3771C20.8222 13.3812 19.919 13.3783 19.0159 13.3783L19.0165 13.3766Z" fill="black"/>
</svg>
