<svg width="28" height="28" viewBox="0 0 28 28" fill="none" xmlns="http://www.w3.org/2000/svg">
<path d="M0.000984016 13.8243C0.0921394 6.19886 6.33205 -0.02298 14.0579 6.38049e-05C21.738 0.0231076 28.1788 6.34559 27.9962 14.3367C27.8251 21.8185 21.7681 27.877 14.2463 27.998C6.25648 28.1264 -0.0908491 21.6555 0.000984016 13.8243ZM27.1456 14.0124C27.1548 6.75496 21.2927 0.900129 14.0969 0.855058C6.81121 0.80897 0.927787 6.63804 0.857641 13.8501C0.785463 21.26 6.6987 27.0769 13.8586 27.145C21.309 27.2162 27.1483 21.2062 27.1456 14.0124Z" fill="black"/>
<g clip-path="url(#clip0)">
<path d="M10.5078 18.1781C11.2583 18.5054 11.8668 20.1162 11.5088 20.8002C11.4526 20.9089 11.2365 20.9869 11.0933 20.9881C9.56303 21.0009 8.03401 20.9933 6.50371 20.9996C6.18794 21.0009 6.09845 20.8782 6.03325 20.5599C5.87728 19.7928 6.29661 19.197 6.54974 18.5578C6.61622 18.3903 6.91409 18.3162 7.15061 18.1704C6.9077 17.0978 6.67503 15.9805 6.39632 14.8759C6.2493 14.2929 6.35925 13.7867 6.67375 13.3034C7.52136 12.0045 8.3728 10.7107 9.22169 9.41437C9.4582 9.05257 9.75352 8.73552 10.2099 8.96819C10.6919 9.21493 10.7162 9.65344 10.5116 10.1226C10.3518 10.4921 10.1984 10.8641 10.054 11.24C9.87242 11.7079 9.49016 12.1758 10.0552 12.6565C10.1281 12.7192 10.1128 12.8956 10.1217 13.0209C10.2534 14.7468 10.38 16.4727 10.5078 18.1781ZM10.1856 18.3136C10.1856 18.0349 10.2023 17.8253 10.1831 17.6194C10.0412 16.0623 9.90182 14.5051 9.73051 12.9506C9.71261 12.7933 9.49144 12.6591 9.3636 12.5146C9.24086 12.6642 9.02353 12.8074 9.0133 12.9646C8.97111 13.5783 9.01714 14.1983 8.98518 14.8132C8.96216 15.2594 8.92892 15.7324 8.43928 15.9817C8.50959 15.3591 8.58886 14.7711 8.64 14.1804C8.70647 13.4159 8.38431 12.5312 9.33419 12.0531C9.37766 12.0313 9.39044 11.9419 9.41473 11.8831C9.66275 11.2771 9.94017 10.68 10.1434 10.0587C10.2125 9.84776 10.0936 9.57418 10.0616 9.32999C9.86475 9.454 9.60011 9.53199 9.48121 9.70714C8.63488 10.9523 7.78855 12.2001 7.00998 13.4875C6.79776 13.8378 6.68781 14.3466 6.75301 14.7468C6.93199 15.8271 7.21964 16.8894 7.49707 17.9506C7.53542 18.0976 7.75915 18.2906 7.90489 18.2983C8.6221 18.3328 9.34186 18.3136 10.1856 18.3136ZM11.1931 20.5969C11.3158 19.5256 11.3158 19.532 10.3531 19.5806C9.92995 19.601 9.50422 19.5831 9.07978 19.5895C8.35874 19.601 7.63769 19.6176 6.91665 19.6317C6.55485 19.6381 6.38993 19.8618 6.49093 20.1687C6.54846 20.3438 6.79392 20.5739 6.96012 20.5778C8.35746 20.611 9.75608 20.5969 11.1931 20.5969ZM10.8428 19.2034C10.9668 18.7879 10.8581 18.5911 10.4119 18.5987C9.37638 18.6166 8.34084 18.6051 7.3053 18.623C6.82972 18.6307 6.82972 18.6499 6.92688 19.2034C8.22578 19.2034 9.52979 19.2034 10.8428 19.2034Z" fill="black"/>
<path d="M21.2608 18.245C21.8221 18.2897 21.8208 18.8113 22.056 19.0542C22.5431 19.5566 22.2989 20.0578 22.3782 20.5526C22.4306 20.885 22.2516 21.0013 21.932 20.9987C20.403 20.9923 18.8727 21.0064 17.3437 20.9796C17.189 20.977 16.941 20.7712 16.9026 20.6178C16.7185 19.8775 17.0445 19.2076 17.3194 18.5531C17.391 18.383 17.6825 18.3063 17.9267 18.1516C18.0519 16.4756 18.1798 14.7497 18.3089 13.0238C18.3166 12.919 18.291 12.7707 18.3485 12.7144C18.9775 12.1148 18.4828 11.5638 18.2846 11.0064C18.1644 10.6676 18.0136 10.3391 17.8794 10.0054C17.7042 9.56688 17.8052 9.1859 18.2169 8.96856C18.6068 8.76145 18.9162 8.98007 19.1335 9.30863C20.0348 10.6715 20.9681 12.0164 21.8003 13.4201C22.0317 13.81 22.0752 14.4007 22.0023 14.866C21.8272 15.9719 21.5306 17.0573 21.2608 18.245ZM18.1875 18.3166C19.0645 18.3166 19.7651 18.3434 20.4605 18.2974C20.6331 18.2859 20.8914 18.0634 20.9387 17.8908C21.2174 16.8745 21.4795 15.8492 21.6712 14.8136C21.7403 14.4429 21.7134 13.9609 21.5268 13.6541C20.6894 12.2785 19.7855 10.9425 18.8842 9.60651C18.7883 9.46332 18.5493 9.4173 18.3767 9.32653C18.323 9.53236 18.1734 9.77271 18.2322 9.9389C18.4777 10.6357 18.7794 11.3132 19.0773 11.9908C19.122 12.0931 19.269 12.1442 19.3355 12.2427C19.4928 12.4753 19.7344 12.7131 19.7574 12.9663C19.8494 13.9558 19.8712 14.9517 19.921 15.9732C19.5528 15.7124 19.4621 15.2764 19.4467 14.82C19.4276 14.2677 19.4761 13.7116 19.425 13.1631C19.4045 12.9394 19.1974 12.7323 19.076 12.5175C18.9456 12.7246 18.7244 12.9202 18.6988 13.1401C18.5838 14.1258 18.5326 15.1179 18.4406 16.1074C18.3716 16.8144 18.2782 17.5201 18.1875 18.3166ZM17.2235 20.5884C18.7027 20.5884 20.1409 20.5999 21.5792 20.5679C21.7096 20.5653 21.9333 20.2841 21.9333 20.1307C21.9333 19.9683 21.7518 19.7292 21.592 19.6628C21.3695 19.5694 21.0934 19.5924 20.839 19.5899C19.9261 19.5822 19.0121 19.6052 18.1005 19.5771C17.1379 19.549 17.1391 19.5298 17.2235 20.5884ZM17.5776 19.1948C18.9354 19.1948 20.2394 19.1948 21.5408 19.1948C21.6763 18.7857 21.5702 18.6132 21.1522 18.6157C20.0962 18.6234 19.0389 18.6157 17.9816 18.5991C17.5495 18.594 17.4882 18.819 17.5776 19.1948Z" fill="black"/>
<path d="M14.104 6C16.0984 7.47533 16.1112 9.79954 14.1603 11.234C12.1889 9.88008 12.1467 7.43442 14.104 6ZM14.0376 6.4807C13.6924 7.65431 12.809 8.76272 13.8931 10.0258C13.9251 9.34441 13.9532 8.76016 13.98 8.17464C14.0861 8.17719 14.1923 8.17975 14.2984 8.18231C14.2984 8.94426 14.2984 9.70621 14.2984 10.619C15.6701 9.27026 15.4822 7.37177 14.0376 6.4807Z" fill="black"/>
<path d="M13.7845 15.6842C12.5175 16.2071 11.4334 15.7353 11.0742 14.5119C10.9668 14.1475 10.9975 13.9481 11.45 13.8509C12.7336 13.5735 13.7538 14.3495 13.7845 15.6842ZM12.4012 15.3659C12.469 15.2955 12.5367 15.2252 12.6058 15.1549C12.3999 15.0539 12.1941 14.9529 11.9883 14.8519C12.0586 14.7586 12.1289 14.6665 12.1992 14.5732C12.5482 14.7407 12.8972 14.9095 13.2578 15.082C12.9573 14.2268 12.2299 13.9212 11.3171 14.3661C11.7032 14.7228 12.0522 15.045 12.4012 15.3659Z" fill="black"/>
<path d="M13.8061 13.0024C12.4638 13.5266 11.3464 13.0076 11.0523 11.7572C10.9769 11.4351 11.0281 11.2714 11.4026 11.1819C12.6862 10.87 13.6463 11.5642 13.8061 13.0024ZM11.3477 11.7176C11.7018 12.0334 12.0572 12.3479 12.4113 12.6637C12.4753 12.5946 12.5405 12.5243 12.6044 12.4553C12.3973 12.3619 12.1889 12.2673 11.9818 12.174C12.0534 12.0807 12.1262 11.9861 12.1978 11.8928C12.5468 12.0602 12.8946 12.229 13.25 12.4003C12.9828 11.5962 12.4574 11.3443 11.3477 11.7176Z" fill="black"/>
<path d="M13.7896 18.3553C12.5572 18.9012 11.4462 18.4269 11.0793 17.2047C10.9745 16.8544 10.9693 16.6358 11.4372 16.5348C12.731 16.2586 13.7231 17.0001 13.7896 18.3553ZM12.088 17.4246C12.1238 17.3735 12.1596 17.3223 12.1954 17.2699C12.3731 17.344 12.5533 17.4118 12.7259 17.4962C12.9011 17.5818 13.0685 17.6841 13.3012 17.8132C12.9164 16.8991 12.3424 16.6511 11.4219 16.9631C11.6226 17.4808 11.941 17.8311 12.5214 17.8823C12.3756 17.7289 12.2324 17.5767 12.088 17.4246Z" fill="black"/>
<path d="M17.3705 11.3647C17.0291 13.0165 15.9808 13.6173 14.5758 12.9935C14.6627 11.4516 15.8888 10.7165 17.3705 11.3647ZM15.0987 12.4118C15.495 12.2238 15.8453 12.0589 16.1943 11.894C16.2314 11.9566 16.2685 12.0206 16.3055 12.0832C16.1393 12.2379 15.9731 12.3939 15.8069 12.5486C15.8543 12.5984 15.9028 12.6496 15.9501 12.6994C16.3094 12.3619 16.6686 12.0257 17.1071 11.6153C15.9668 11.3161 15.4145 11.568 15.0987 12.4118Z" fill="black"/>
<path d="M14.5387 18.3394C14.8251 16.7043 15.8977 16.088 17.3257 16.7043C17.2285 18.255 16.0064 18.9888 14.5387 18.3394ZM15.8223 17.883C15.867 17.9418 15.9105 18.0006 15.9552 18.0607C16.3119 17.7232 16.6673 17.3857 17.1033 16.974C15.9642 16.68 15.4004 16.9395 15.114 17.7513C15.4758 17.5877 15.8376 17.424 16.1994 17.2591C16.2352 17.3243 16.271 17.3882 16.3068 17.4534C16.1457 17.5966 15.9846 17.7398 15.8223 17.883Z" fill="black"/>
<path d="M14.5541 15.6764C14.6525 13.9326 16.3477 13.3752 17.35 14.0592C17.0982 15.6611 16.0626 16.2735 14.5541 15.6764ZM17.1391 14.2957C15.9489 14.0029 15.3966 14.2599 15.1166 15.073C15.4784 14.9094 15.8389 14.7457 16.2007 14.5808C16.234 14.6422 16.2672 14.7048 16.3004 14.7662C16.1368 14.9196 15.9719 15.0743 15.8082 15.2277C15.8555 15.2788 15.9016 15.3287 15.9489 15.3798C16.3094 15.05 16.6712 14.7214 17.1391 14.2957Z" fill="black"/>
<path d="M14.278 19.7078C13.8791 19.1427 13.8906 11.8671 14.278 11.3877C14.278 14.1747 14.278 16.8709 14.278 19.7078Z" fill="black"/>
</g>
<defs>
<clipPath id="clip0">
<rect width="16.3871" height="15" fill="white" transform="translate(6 6)"/>
</clipPath>
</defs>
</svg>
