<svg width="28" height="28" viewBox="0 0 28 28" fill="none" xmlns="http://www.w3.org/2000/svg">
<path d="M0.000984016 13.8243C0.0921394 6.19886 6.33205 -0.02298 14.0579 6.38049e-05C21.738 0.0231076 28.1788 6.34559 27.9962 14.3367C27.8251 21.8185 21.7681 27.877 14.2463 27.998C6.25648 28.1264 -0.0908491 21.6555 0.000984016 13.8243ZM27.1456 14.0124C27.1548 6.75496 21.2927 0.900129 14.0969 0.855058C6.81121 0.80897 0.927787 6.63804 0.857641 13.8501C0.785463 21.26 6.6987 27.0769 13.8586 27.145C21.309 27.2162 27.1483 21.2062 27.1456 14.0124Z" fill="black"/>
<path d="M20.2124 9.23708C17.7167 8.73791 15.2436 8.24348 12.7601 7.74702C12.5937 8.2123 12.4388 8.65624 12.2755 9.09712C12.1318 9.48514 11.9715 9.86705 11.8316 10.2564C11.4249 11.3879 11.0301 12.5239 10.6201 13.654C10.4527 14.1156 10.2667 14.571 10.0712 15.0214C9.96373 15.2688 9.76583 15.3589 9.50999 15.3271C9.286 15.2993 9.09589 15.137 9.05794 14.8906C9.03625 14.7479 9.04947 14.5853 9.09657 14.4487C9.36224 13.6784 9.6435 12.9136 9.91866 12.1467C10.0515 11.7763 10.1813 11.4049 10.3162 11.0352C10.7665 9.80199 11.2189 8.56948 11.6696 7.3363C11.7214 7.19431 11.7696 7.05062 11.8194 6.90795C11.9288 6.59585 12.2853 6.46877 12.5764 6.52604C13.718 6.75038 14.861 6.96929 16.0024 7.19702C16.7062 7.33732 17.4063 7.49489 18.1098 7.63655C19.0742 7.83072 20.0403 8.01507 21.0047 8.20858C21.4347 8.29499 21.6438 8.63285 21.5025 9.04561C21.1897 9.95923 20.8881 10.8766 20.5845 11.7936C20.3727 12.4337 20.1708 13.0773 19.9539 13.7157C19.8278 14.0864 19.6777 14.449 19.5449 14.8174C19.2548 15.6206 18.9766 16.4278 18.6787 17.2279C18.3605 18.0822 18.0173 18.9284 17.5473 19.7125C17.3582 20.0284 17.1359 20.33 16.8922 20.6055C16.6181 20.9152 16.2579 21.1189 15.8739 21.2754C15.2416 21.533 14.5835 21.6052 13.9248 21.4483C13.5323 21.3547 13.1582 21.1734 12.7848 21.0118C11.9647 20.6567 11.1484 20.2924 10.3341 19.9243C9.87529 19.7169 9.42459 19.4909 8.9678 19.2794C8.67265 19.1429 8.36699 19.028 8.07522 18.8846C7.26364 18.4848 6.76991 17.8382 6.6103 16.9442C6.51304 16.399 6.54625 15.8588 6.68722 15.3125C6.96509 15.4152 7.23483 15.5087 7.50016 15.6141C8.33615 15.9459 9.17146 16.279 10.0051 16.6175C10.6228 16.8683 11.2355 17.1306 11.8529 17.3824C12.2687 17.5518 12.6882 17.7131 13.1074 17.8744C13.2219 17.9185 13.2799 17.971 13.2738 18.1154C13.2562 18.539 13.3097 18.9558 13.4527 19.3598C13.6909 20.0328 14.269 20.3842 14.9793 20.3212C15.5757 20.2683 15.979 19.9484 16.3145 19.4875C16.7252 18.924 17.0179 18.3021 17.2616 17.6538C17.5659 16.8439 17.8793 16.037 18.1647 15.2203C18.7092 13.6622 19.2365 12.0979 19.7716 10.5367C19.8987 10.1659 20.0295 9.79623 20.1575 9.42549C20.1782 9.36822 20.1921 9.30824 20.2124 9.23708Z" fill="black"/>
<path d="M16.5967 14.614C16.4981 14.5852 16.325 14.5388 16.1549 14.4836C15.429 14.2474 14.7035 14.0105 13.979 13.7699C13.7184 13.6835 13.6306 13.4707 13.6157 13.2209C13.6025 12.9983 13.7106 12.8346 13.8977 12.7224C14.059 12.6255 14.2297 12.6357 14.4019 12.6916C15.1169 12.9237 15.8329 13.1521 16.5459 13.3903C16.7235 13.4496 16.9065 13.5174 17.059 13.6225C17.2613 13.7614 17.3182 14.0386 17.2331 14.2592C17.1461 14.4846 16.9329 14.6208 16.5967 14.614Z" fill="black"/>
<path d="M16.3037 16.3922C16.2894 16.8138 15.975 17.0913 15.4799 16.9253C14.8899 16.7274 14.3016 16.5261 13.7117 16.3278C13.488 16.2526 13.2586 16.1936 13.0394 16.1076C12.7069 15.9774 12.5538 15.6718 12.6903 15.3627C12.8283 15.0509 13.0441 14.8923 13.4402 15.0198C13.8984 15.1668 14.3511 15.3319 14.8076 15.484C15.1702 15.605 15.5361 15.7141 15.8984 15.8361C16.1688 15.9276 16.3044 16.1221 16.3037 16.3922Z" fill="black"/>
<path d="M18.3108 11.5435C18.3064 11.84 17.954 12.1562 17.6592 12.1054C17.4511 12.0695 17.2498 11.9946 17.0455 11.9376C16.829 11.8777 16.6128 11.8177 16.3959 11.7591C15.9506 11.6384 15.505 11.5195 15.0597 11.3985C14.7707 11.3199 14.5985 11.0989 14.6087 10.8248C14.6185 10.5608 14.8164 10.2859 15.0784 10.2653C15.2776 10.2493 15.4877 10.3103 15.6863 10.3632C16.1529 10.4872 16.6151 10.6269 17.0794 10.7594C17.3498 10.8366 17.6195 10.9183 17.8923 10.9864C18.0957 11.0369 18.3224 11.3565 18.3108 11.5435Z" fill="black"/>
<path d="M13.4405 10.8853C13.0661 10.8775 12.8136 10.6349 12.814 10.2835C12.8143 9.96526 13.0773 9.71178 13.4009 9.71788C13.7903 9.72534 14.0705 9.97577 14.063 10.3092C14.0546 10.6647 13.8086 10.8928 13.4405 10.8853Z" fill="black"/>
<path d="M11.5681 14.3598C11.9486 14.3588 12.2296 14.5977 12.235 14.9274C12.2404 15.2677 11.9818 15.5296 11.6426 15.5272C11.2597 15.5245 10.9842 15.2843 10.989 14.9284C10.9937 14.5835 11.2543 14.3374 11.5681 14.3598Z" fill="black"/>
<path d="M12.5645 13.2776C12.206 13.3003 11.8899 12.9577 11.8922 12.6886C11.8943 12.4402 12.2135 12.1213 12.5059 12.1362C12.8678 12.1552 13.1494 12.3979 13.1454 12.7205C13.142 13.0282 12.88 13.2789 12.5645 13.2776Z" fill="black"/>
</svg>
