<svg width="419" height="405" viewBox="0 0 419 405" fill="none" xmlns="http://www.w3.org/2000/svg">
<g filter="url(#filter0_d)">
<mask id="path-1-inside-1" fill="white">
<path fill-rule="evenodd" clip-rule="evenodd" d="M111.343 2H6C3.79086 2 2 3.79085 2 5.99999V391C2 393.209 3.79087 395 6.00001 395H405C407.209 395 409 393.209 409 391V6C409 3.79086 407.209 2 405 2H308.656C297.16 45.7394 257.348 78 210 78C162.652 78 122.84 45.7394 111.343 2Z"/>
</mask>
<path fill-rule="evenodd" clip-rule="evenodd" d="M111.343 2H6C3.79086 2 2 3.79085 2 5.99999V391C2 393.209 3.79087 395 6.00001 395H405C407.209 395 409 393.209 409 391V6C409 3.79086 407.209 2 405 2H308.656C297.16 45.7394 257.348 78 210 78C162.652 78 122.84 45.7394 111.343 2Z" fill="white"/>
<path d="M111.343 2L113.278 1.49161L112.886 0H111.343V2ZM308.656 2V0H307.114L306.722 1.49161L308.656 2ZM6 4H111.343V0H6V4ZM4 5.99999C4 4.89543 4.89542 4 6 4V0C2.6863 0 0 2.68627 0 5.99999H4ZM4 391V5.99999H0V391H4ZM6.00001 393C4.89543 393 4 392.105 4 391H0C0 394.314 2.68631 397 6.00001 397V393ZM405 393H6.00001V397H405V393ZM407 391C407 392.105 406.105 393 405 393V397C408.314 397 411 394.314 411 391H407ZM407 6V391H411V6H407ZM405 4C406.105 4 407 4.89543 407 6H411C411 2.68629 408.314 0 405 0V4ZM308.656 4H405V0H308.656V4ZM306.722 1.49161C295.451 44.3739 256.416 76 210 76V80C258.279 80 298.87 47.1048 310.591 2.50839L306.722 1.49161ZM210 76C163.584 76 124.549 44.3739 113.278 1.49161L109.409 2.50839C121.13 47.1048 161.721 80 210 80V76Z" fill="#F0DD45" mask="url(#path-1-inside-1)"/>
</g>
<defs>
<filter id="filter0_d" x="0" y="0" width="419" height="405" filterUnits="userSpaceOnUse" color-interpolation-filters="sRGB">
<feFlood flood-opacity="0" result="BackgroundImageFix"/>
<feColorMatrix in="SourceAlpha" type="matrix" values="0 0 0 0 0 0 0 0 0 0 0 0 0 0 0 0 0 0 127 0"/>
<feOffset dx="4" dy="4"/>
<feGaussianBlur stdDeviation="3"/>
<feColorMatrix type="matrix" values="0 0 0 0 0 0 0 0 0 0 0 0 0 0 0 0 0 0 0.15 0"/>
<feBlend mode="normal" in2="BackgroundImageFix" result="effect1_dropShadow"/>
<feBlend mode="normal" in="SourceGraphic" in2="effect1_dropShadow" result="shape"/>
</filter>
</defs>
</svg>
