<svg width="264" height="63" viewBox="0 0 264 63" fill="none" xmlns="http://www.w3.org/2000/svg">
<path d="M85.6668 13.4229C87.8205 13.4229 89.763 13.8999 91.4944 14.854C93.225 15.808 94.5841 17.1275 95.5701 18.8123C96.5569 20.4972 97.0495 22.3951 97.0495 24.5063C97.0495 26.6174 96.5569 28.5154 95.5701 30.2002C94.5841 31.8851 93.225 33.2045 91.4944 34.1586C89.763 35.1126 87.8205 35.5897 85.6668 35.5897C83.775 35.5897 82.0338 35.2243 80.4431 34.4935C78.8729 33.7627 77.5645 32.7376 76.518 31.4182C75.4919 30.0987 74.807 28.5864 74.465 26.8813H72.2606V35.1634H66.3732V13.8491H72.2606V21.8268H74.5255C74.9077 20.1622 75.6228 18.7007 76.6693 17.4421C77.7159 16.1633 79.0144 15.1787 80.5642 14.4886C82.114 13.7781 83.8151 13.4229 85.6668 13.4229ZM85.6668 30.5961C86.6733 30.5961 87.5791 30.3423 88.3842 29.8348C89.1894 29.3273 89.8235 28.6169 90.2866 27.7034C90.7694 26.7899 91.0108 25.7242 91.0108 24.5063C91.0108 23.2883 90.7694 22.2226 90.2866 21.3091C89.8235 20.3957 89.1894 19.6852 88.3842 19.1777C87.5791 18.6702 86.6733 18.4165 85.6668 18.4165C84.6604 18.4165 83.7447 18.6702 82.9191 19.1777C82.114 19.6649 81.47 20.3754 80.9865 21.3091C80.5241 22.2226 80.2925 23.2883 80.2925 24.5063C80.2925 25.7242 80.5241 26.8001 80.9865 27.7339C81.47 28.6473 82.114 29.3578 82.9191 29.8653C83.7447 30.3525 84.6604 30.5961 85.6668 30.5961Z" fill="#ECD416"/>
<path d="M99.9493 18.6602H105.657V24.7804H111.544V18.6602H117.281V35.1635H111.544V29.3782H105.657V35.1635H99.9493V18.6602Z" fill="#ECD416"/>
<path d="M121.15 18.6602H126.856V27.3077L133.711 18.6602H138.994V35.1635H133.257V26.4855L126.464 35.1635H121.15V18.6602Z" fill="#ECD416"/>
<path d="M151.728 27.0031H149.011V35.1634H143.063V13.8491H149.011V22.1312H151.879L156.922 13.8491H163.202L156.589 24.1409L163.262 35.1634H156.529L151.728 27.0031Z" fill="#ECD416"/>
<path d="M175.498 18.3857C176.987 18.3857 178.336 18.741 179.543 19.4515C180.771 20.1416 181.738 21.1363 182.442 22.4355C183.166 23.7143 183.529 25.2063 183.529 26.9115C183.529 28.6166 183.166 30.1187 182.442 31.4179C181.738 32.6968 180.771 33.6914 179.543 34.4019C178.336 35.0921 176.987 35.4372 175.498 35.4372C173.586 35.4372 172.065 34.8586 170.939 33.7016V41.0702H165.202V18.6598H170.667V20.304C171.733 19.0252 173.343 18.3857 175.498 18.3857ZM174.29 30.8394C175.297 30.8394 176.121 30.4943 176.765 29.8041C177.41 29.0936 177.732 28.1294 177.732 26.9115C177.732 25.6935 177.41 24.7394 176.765 24.0492C176.121 23.3388 175.297 22.9835 174.29 22.9835C173.284 22.9835 172.458 23.3388 171.814 24.0492C171.17 24.7394 170.848 25.6935 170.848 26.9115C170.848 28.1294 171.17 29.0936 171.814 29.8041C172.458 30.4943 173.284 30.8394 174.29 30.8394Z" fill="#ECD416"/>
<path d="M202.86 26.9419C202.86 26.9825 202.83 27.4595 202.769 28.373H190.873C191.115 29.2256 191.577 29.8853 192.262 30.3522C192.967 30.7988 193.842 31.0221 194.889 31.0221C195.674 31.0221 196.349 30.9104 196.912 30.6871C197.496 30.4638 198.079 30.0984 198.663 29.591L201.683 32.7576C200.092 34.544 197.767 35.4372 194.708 35.4372C192.796 35.4372 191.115 35.0718 189.665 34.341C188.216 33.6102 187.089 32.5953 186.284 31.2961C185.499 29.9969 185.106 28.5252 185.106 26.881C185.106 25.2571 185.489 23.8057 186.254 22.5268C187.039 21.2276 188.115 20.2127 189.484 19.4819C190.853 18.7511 192.393 18.3857 194.104 18.3857C195.734 18.3857 197.214 18.7308 198.542 19.421C199.871 20.0909 200.918 21.0754 201.683 22.3746C202.468 23.6534 202.86 25.1759 202.86 26.9419ZM194.134 22.4963C193.248 22.4963 192.504 22.7501 191.9 23.2576C191.316 23.7651 190.943 24.4552 190.783 25.3281H197.485C197.325 24.4552 196.942 23.7651 196.338 23.2576C195.755 22.7501 195.02 22.4963 194.134 22.4963Z" fill="#ECD416"/>
<path d="M225.187 30.5352V38.5738H219.873V35.1635H209.577V38.5738H204.233V30.5352H204.837C205.823 30.5149 206.507 29.977 206.89 28.9215C207.272 27.8456 207.504 26.3434 207.584 24.415L207.796 18.6602H222.923V30.5352H225.187ZM212.747 24.8413C212.687 26.3231 212.576 27.5107 212.415 28.4038C212.254 29.297 211.952 30.0075 211.509 30.5352H217.186V23.2579H212.807L212.747 24.8413Z" fill="#ECD416"/>
<path d="M227.652 18.6602H233.359V27.3077L240.213 18.6602H245.497V35.1635H239.76V26.4855L232.967 35.1635H227.652V18.6602Z" fill="#ECD416"/>
<path d="M263.967 23.2579H258.714V35.1635H253.007V23.2579H247.724V18.6602H263.967V23.2579Z" fill="#ECD416"/>
<path d="M69.9481 48.8896C70.3302 48.9931 70.6208 49.1714 70.8206 49.4243C71.0196 49.6715 71.1195 49.982 71.1195 50.3556C71.1195 50.8845 70.9258 51.2956 70.5383 51.5888C70.1501 51.882 69.5889 52.0286 68.8536 52.0286H66.0147V45.9922H68.6911C69.3637 45.9922 69.8883 46.1273 70.2644 46.3975C70.6405 46.6677 70.8289 47.05 70.8289 47.5444C70.8289 47.8606 70.7517 48.1337 70.5981 48.3636C70.4498 48.5936 70.2334 48.7689 69.9481 48.8896ZM67.1092 48.5706H68.597C68.9562 48.5706 69.2298 48.4988 69.4179 48.355C69.606 48.2113 69.6999 47.9986 69.6999 47.7169C69.6999 47.4352 69.606 47.2225 69.4179 47.0787C69.2298 46.9293 68.9562 46.8545 68.597 46.8545H67.1092V48.5706ZM68.8194 51.1662C69.606 51.1662 69.9995 50.8673 69.9995 50.2694C69.9995 49.683 69.606 49.3898 68.8194 49.3898H67.1092V51.1662H68.8194Z" fill="#ECD416"/>
<path d="M78.2433 47.3721C78.9161 47.3721 79.4291 47.5359 79.7825 47.8636C80.142 48.1856 80.3213 48.6742 80.3213 49.3296V52.0287H79.3126V51.4682C79.1809 51.6694 78.9932 51.8246 78.7481 51.9338C78.5082 52.0373 78.2176 52.0891 77.8755 52.0891C77.5335 52.0891 77.2346 52.0316 76.9781 51.9166C76.7215 51.7959 76.5218 51.632 76.3795 51.4251C76.2425 51.2124 76.1737 50.9738 76.1737 50.7093C76.1737 50.2954 76.325 49.9649 76.6269 49.7176C76.9349 49.4647 77.417 49.3382 78.0723 49.3382H79.252V49.2692C79.252 48.9473 79.1552 48.7001 78.9615 48.5276C78.7738 48.3551 78.4915 48.2689 78.1154 48.2689C77.8589 48.2689 77.6046 48.3092 77.3542 48.3896C77.109 48.4701 76.9009 48.5822 76.7299 48.7259L76.3106 47.9412C76.5505 47.7573 76.8381 47.6164 77.1748 47.5187C77.5108 47.421 77.8672 47.3721 78.2433 47.3721ZM78.098 51.3043C78.3659 51.3043 78.6028 51.244 78.8078 51.1232C79.019 50.9968 79.1665 50.8186 79.252 50.5886V50.0539H78.1495C77.5335 50.0539 77.2255 50.2581 77.2255 50.6662C77.2255 50.8617 77.3027 51.0169 77.4563 51.1319C77.6107 51.2469 77.8241 51.3043 78.098 51.3043Z" fill="#ECD416"/>
<path d="M92.6491 47.4233V52.0282H85.9195V47.4233H86.988V51.1142H88.758V47.4233H89.8273V51.1142H91.5799V47.4233H92.6491Z" fill="#ECD416"/>
<path d="M106.899 50.1828H106.07V52.0282H105V47.4233H106.07V49.286H106.925L108.276 47.4233H109.421L107.762 49.6396L109.532 52.0282H108.276L106.899 50.1828Z" fill="#ECD416"/>
<path d="M117.093 47.3721C117.538 47.3721 117.934 47.4698 118.282 47.6653C118.635 47.8608 118.911 48.1367 119.111 48.4931C119.311 48.8496 119.411 49.2606 119.411 49.7263C119.411 50.1919 119.311 50.6058 119.111 50.968C118.911 51.3245 118.635 51.6004 118.282 51.7959C117.934 51.9914 117.538 52.0891 117.093 52.0891C116.478 52.0891 115.99 51.8821 115.631 51.4682V53.7016H114.562V47.4238H115.579V48.0274C115.757 47.809 115.973 47.6452 116.229 47.5359C116.491 47.4267 116.78 47.3721 117.093 47.3721ZM116.973 51.1664C117.367 51.1664 117.688 51.0342 117.94 50.7697C118.196 50.5053 118.324 50.1574 118.324 49.7263C118.324 49.2951 118.196 48.9473 117.94 48.6828C117.688 48.4184 117.367 48.2861 116.973 48.2861C116.717 48.2861 116.486 48.3465 116.281 48.4672C116.076 48.5822 115.913 48.749 115.794 48.9674C115.673 49.1859 115.613 49.4389 115.613 49.7263C115.613 50.0137 115.673 50.2667 115.794 50.4851C115.913 50.7036 116.076 50.8732 116.281 50.9939C116.486 51.1089 116.717 51.1664 116.973 51.1664Z" fill="#ECD416"/>
<path d="M129.025 49.7521C129.025 49.8269 129.02 49.9332 129.008 50.0712H125.425C125.488 50.4104 125.651 50.6806 125.913 50.8818C126.18 51.0773 126.511 51.175 126.905 51.175C127.406 51.175 127.82 51.0083 128.144 50.6748L128.718 51.3388C128.512 51.5861 128.253 51.7729 127.939 51.8994C127.626 52.0259 127.272 52.0891 126.879 52.0891C126.377 52.0891 125.935 51.9885 125.554 51.7873C125.172 51.5861 124.875 51.3072 124.664 50.9508C124.459 50.5886 124.357 50.1805 124.357 49.7263C124.357 49.2778 124.456 48.8754 124.656 48.519C124.861 48.1568 125.143 47.8751 125.502 47.6739C125.861 47.4727 126.266 47.3721 126.716 47.3721C127.161 47.3721 127.558 47.4727 127.905 47.6739C128.258 47.8694 128.532 48.1482 128.726 48.5104C128.925 48.8668 129.025 49.2807 129.025 49.7521ZM126.716 48.2344C126.374 48.2344 126.084 48.3379 125.844 48.5448C125.611 48.7461 125.468 49.0163 125.417 49.3554H128.008C127.962 49.022 127.823 48.7518 127.589 48.5448C127.355 48.3379 127.064 48.2344 126.716 48.2344Z" fill="#ECD416"/>
<path d="M139.286 51.1142V53.0544H138.285V52.0282H134.762V53.0544H133.77V51.1142H133.984C134.274 51.1027 134.471 50.9158 134.574 50.5536C134.682 50.1857 134.753 49.6683 134.787 49.0014L134.847 47.4233H138.61V51.1142H139.286ZM135.762 49.079C135.739 49.608 135.697 50.0391 135.634 50.3725C135.571 50.706 135.457 50.9532 135.292 51.1142H137.541V48.3374H135.788L135.762 49.079Z" fill="#ECD416"/>
<path d="M144.516 47.4233H145.584V50.4588L148.107 47.4233H149.082V52.0282H148.013V48.9928L145.499 52.0282H144.516V47.4233Z" fill="#ECD416"/>
<path d="M158.412 48.3374H156.813V52.0282H155.744V48.3374H154.137V47.4233H158.412V48.3374Z" fill="#ECD416"/>
<path d="M163.463 47.4233H164.532V49.2946H166.833V47.4233H167.901V52.0282H166.833V50.2087H164.532V52.0282H163.463V47.4233Z" fill="#ECD416"/>
<path d="M175.832 48.9411C176.413 48.9411 176.858 49.0733 177.166 49.3377C177.474 49.6022 177.628 49.9759 177.628 50.4588C177.628 50.9647 177.457 51.3556 177.115 51.6316C176.779 51.9075 176.3 52.0427 175.679 52.0369L173.609 52.0283V47.4233H174.678V48.9324L175.832 48.9411ZM178.218 47.4233H179.287V52.0283H178.218V47.4233ZM175.584 51.2435C175.898 51.2493 176.137 51.1832 176.303 51.0452C176.468 50.9072 176.55 50.706 176.55 50.4415C176.55 50.1828 176.471 49.9931 176.311 49.8724C176.152 49.7517 175.909 49.6885 175.584 49.6827L174.678 49.6741V51.2349L175.584 51.2435Z" fill="#ECD416"/>
<path d="M184.999 47.4237H186.068V50.4591L188.591 47.4237H189.565V52.0286H188.497V48.9932L185.982 52.0286H184.999V47.4237ZM187.214 46.8804C186.752 46.8804 186.398 46.7741 186.153 46.5614C185.914 46.343 185.792 46.0267 185.786 45.6128H186.495C186.501 45.8198 186.564 45.9836 186.684 46.1043C186.809 46.2251 186.983 46.2854 187.205 46.2854C187.422 46.2854 187.593 46.2251 187.718 46.1043C187.85 45.9836 187.918 45.8198 187.924 45.6128H188.65C188.645 46.0267 188.52 46.343 188.274 46.5614C188.029 46.7741 187.676 46.8804 187.214 46.8804Z" fill="#ECD416"/>
<path d="M203.337 47.355C203.816 47.355 204.247 47.4585 204.628 47.6654C205.01 47.8667 205.31 48.1483 205.526 48.5105C205.743 48.867 205.851 49.2723 205.851 49.7264C205.851 50.1806 205.743 50.5888 205.526 50.9509C205.31 51.3131 205.01 51.5977 204.628 51.8046C204.247 52.0059 203.816 52.1065 203.337 52.1065C202.921 52.1065 202.545 52.0375 202.208 51.8995C201.872 51.7615 201.587 51.5632 201.353 51.3045L201.969 50.7009C202.328 51.063 202.769 51.2441 203.295 51.2441C203.682 51.2441 204.013 51.1407 204.286 50.9337C204.565 50.721 204.745 50.4393 204.825 50.0886H202.713V49.3125H204.816C204.731 48.9734 204.552 48.706 204.278 48.5105C204.004 48.3094 203.676 48.2087 203.295 48.2087C202.769 48.2087 202.328 48.3927 201.969 48.7606L201.353 48.157C201.581 47.8925 201.864 47.6942 202.2 47.5619C202.542 47.424 202.921 47.355 203.337 47.355Z" fill="#ECD416"/>
<path d="M213.06 50.1828H212.231V52.0282H211.162V47.4233H212.231V49.286H213.086L214.437 47.4233H215.582L213.924 49.6396L215.694 52.0282H214.437L213.06 50.1828Z" fill="#ECD416"/>
<path d="M222.651 52.0891C222.177 52.0891 221.753 51.9885 221.377 51.7873C221.001 51.5861 220.707 51.3072 220.496 50.9508C220.285 50.5886 220.18 50.1805 220.18 49.7263C220.18 49.2721 220.285 48.8668 220.496 48.5104C220.707 48.154 220.998 47.8751 221.368 47.6739C221.744 47.4727 222.172 47.3721 222.651 47.3721C223.101 47.3721 223.495 47.4641 223.831 47.648C224.173 47.832 224.429 48.0964 224.6 48.4414L223.779 48.9243C223.648 48.7116 223.483 48.5535 223.284 48.45C223.09 48.3408 222.876 48.2861 222.642 48.2861C222.243 48.2861 221.912 48.4184 221.651 48.6828C221.388 48.9415 221.257 49.2894 221.257 49.7263C221.257 50.1632 221.385 50.5139 221.641 50.7783C221.904 51.037 222.237 51.1664 222.642 51.1664C222.876 51.1664 223.09 51.1146 223.284 51.0111C223.483 50.9019 223.648 50.741 223.779 50.5282L224.6 51.0111C224.424 51.3561 224.164 51.6234 223.822 51.8131C223.486 51.9971 223.095 52.0891 222.651 52.0891Z" fill="#ECD416"/>
<path d="M234.195 47.4233V52.0282H233.135V48.3374H230.886V52.0282H229.817V47.4233H234.195Z" fill="#ECD416"/>
<path d="M244.188 49.7521C244.188 49.8269 244.183 49.9332 244.171 50.0712H240.588C240.651 50.4104 240.813 50.6806 241.076 50.8818C241.344 51.0773 241.674 51.175 242.068 51.175C242.569 51.175 242.983 51.0083 243.307 50.6748L243.88 51.3388C243.675 51.5861 243.416 51.7729 243.102 51.8994C242.789 52.0259 242.436 52.0891 242.042 52.0891C241.54 52.0891 241.098 51.9885 240.716 51.7873C240.335 51.5861 240.038 51.3072 239.827 50.9508C239.622 50.5886 239.519 50.1805 239.519 49.7263C239.519 49.2778 239.619 48.8754 239.819 48.519C240.024 48.1568 240.306 47.8751 240.666 47.6739C241.024 47.4727 241.429 47.3721 241.879 47.3721C242.324 47.3721 242.72 47.4727 243.068 47.6739C243.422 47.8694 243.696 48.1482 243.889 48.5104C244.088 48.8668 244.188 49.2807 244.188 49.7521ZM241.879 48.2344C241.537 48.2344 241.247 48.3379 241.008 48.5448C240.774 48.7461 240.631 49.0163 240.58 49.3554H243.17C243.125 49.022 242.986 48.7518 242.752 48.5448C242.518 48.3379 242.227 48.2344 241.879 48.2344Z" fill="#ECD416"/>
<path d="M252.164 47.3721C252.608 47.3721 253.005 47.4698 253.353 47.6653C253.706 47.8608 253.982 48.1367 254.182 48.4931C254.381 48.8496 254.481 49.2606 254.481 49.7263C254.481 50.1919 254.381 50.6058 254.182 50.968C253.982 51.3245 253.706 51.6004 253.353 51.7959C253.005 51.9914 252.608 52.0891 252.164 52.0891C251.548 52.0891 251.061 51.8821 250.702 51.4682V53.7016H249.633V47.4238H250.651V48.0274C250.827 47.809 251.044 47.6452 251.301 47.5359C251.562 47.4267 251.851 47.3721 252.164 47.3721ZM252.044 51.1664C252.437 51.1664 252.76 51.0342 253.011 50.7697C253.267 50.5053 253.395 50.1574 253.395 49.7263C253.395 49.2951 253.267 48.9473 253.011 48.6828C252.76 48.4184 252.437 48.2861 252.044 48.2861C251.788 48.2861 251.557 48.3465 251.351 48.4672C251.146 48.5822 250.984 48.749 250.864 48.9674C250.744 49.1859 250.685 49.4389 250.685 49.7263C250.685 50.0137 250.744 50.2667 250.864 50.4851C250.984 50.7036 251.146 50.8732 251.351 50.9939C251.557 51.1089 251.788 51.1664 252.044 51.1664Z" fill="#ECD416"/>
<path d="M263.271 48.3374H261.672V52.0282H260.603V48.3374H258.995V47.4233H263.271V48.3374Z" fill="#ECD416"/>
<path fill-rule="evenodd" clip-rule="evenodd" d="M48.1273 15.5672C48.0449 12.434 47.3743 12.1839 43.0154 9.68421C40.7281 8.37773 38.9858 7.38367 36.7066 6.07238C34.6917 4.92211 32.677 3.77184 30.6621 2.6215C24.9677 -0.631471 25.5898 -0.635386 19.8911 2.62829C17.8798 3.77772 15.8683 4.92715 13.8488 6.08123C11.5628 7.39054 9.82593 8.38009 7.54001 9.68932C3.18611 12.1809 2.51663 12.4404 2.43581 15.5709C2.4598 15.7632 2.4987 15.9251 2.55 16.0146C2.8449 16.5487 6.07771 18.3035 6.64003 18.6275C8.30476 19.5799 9.96479 20.5242 11.6295 21.4767C12.3688 21.057 13.1163 20.6327 13.8509 20.205C15.8623 19.0555 17.8818 17.9015 19.8933 16.752C25.5966 13.4965 24.9698 13.4922 30.6689 16.7534C32.6837 17.9037 34.6904 19.0587 36.7133 20.2043C37.453 20.6313 38.1926 21.0584 38.9357 21.4726C40.6 20.5253 42.2596 19.5699 43.9239 18.6225C44.489 18.2936 47.7257 16.5393 48.0159 16.012C48.0653 15.929 48.1015 15.7667 48.1273 15.5672Z" fill="#ECD416"/>
<path fill-rule="evenodd" clip-rule="evenodd" d="M50.443 15.6634C50.4488 17.2342 50.442 18.8016 50.4432 20.3643C50.4396 22.8961 50.4448 22.0028 50.4458 24.5427C50.446 31.5562 50.889 31.0702 44.8144 34.542C42.2943 35.9876 40.3878 37.0759 37.8631 38.5133C35.6498 39.7802 33.4285 41.0519 31.2153 42.3188C24.9468 45.9034 25.6279 45.9085 19.3539 42.3199C17.1362 41.0597 14.922 39.7867 12.6996 38.5183C10.1828 37.0741 8.27238 35.9933 5.75558 34.549C-0.302874 31.0737 0.130556 31.5487 0.122239 24.54C0.121248 22.0001 0.124078 22.8886 0.119674 20.3615C0.113786 18.7907 0.120627 17.2233 0.119401 15.6606C0.187 19.3886 0.826245 19.6028 5.75551 22.4218C8.2723 23.8661 10.1874 24.955 12.6996 26.3912C14.9139 27.6642 17.1361 28.9325 19.3538 30.1927C25.6278 33.7814 24.9468 33.7762 31.2152 30.1916C33.4285 28.9246 35.6498 27.653 37.8631 26.3861C40.3797 24.9534 42.2896 23.8522 44.8143 22.4148C49.738 19.6024 50.373 19.3955 50.443 15.6634Z" fill="#ECD416"/>
<path fill-rule="evenodd" clip-rule="evenodd" d="M50.4428 32.6978C50.4487 34.2686 50.4419 35.836 50.4431 37.3986C50.4395 39.9305 50.4447 39.0372 50.4457 41.5771C50.4459 48.5906 50.8889 48.1047 44.8142 51.5764C42.2943 53.022 40.3878 54.1103 37.863 55.5477C35.6498 56.8146 33.4285 58.0862 31.2152 59.3532C24.9468 62.9378 25.6278 62.9429 19.3538 59.3542C17.1361 58.0941 14.9219 56.8211 12.6995 55.5528C10.1827 54.1085 8.2723 53.0277 5.7555 51.5834C-0.311045 48.1128 0.122393 48.5878 0.126804 41.5825C0.125821 39.0426 0.128651 39.9312 0.124247 37.4041C0.118359 35.8332 0.1252 34.2658 0.123974 32.7032C0.191573 36.4311 0.830817 36.6453 5.76004 39.4643C8.27691 40.9086 10.192 41.9975 12.7041 43.4336C14.9184 44.7067 17.1408 45.975 19.3584 47.2352C25.6324 50.8238 24.9513 50.8187 31.2198 47.2341C33.433 45.9672 35.6544 44.6956 37.8676 43.4286C40.3843 41.9959 42.2942 40.8948 44.8189 39.4573C49.7379 36.6367 50.3729 36.4298 50.4428 32.6978Z" fill="#ECD416"/>
</svg>
