<svg width="15" height="13" viewBox="0 0 15 13" fill="none" xmlns="http://www.w3.org/2000/svg">
<path d="M7.84232 12.0408C7.44847 12.5754 6.83514 12.904 6.17199 12.9366C5.50884 12.9696 4.86656 12.7023 4.42221 12.2088L0.440278 7.78995C-0.192576 7.08809 -0.13636 6.00618 0.565503 5.37332C1.26804 4.74047 2.34928 4.79702 2.98213 5.49922L5.79934 8.62579C5.84108 8.67225 5.90168 8.69715 5.96395 8.69413C6.02656 8.6911 6.08379 8.65979 6.12116 8.60997L11.9118 0.756177C12.4723 -0.0045945 13.5434 -0.166511 14.3045 0.394306C15.0649 0.955123 15.2265 2.02626 14.6657 2.7867L7.84232 12.0408Z" fill="#41B718"/>
</svg>
