<svg width="20" height="18" viewBox="0 0 20 18" fill="none" xmlns="http://www.w3.org/2000/svg">
<path d="M10.4565 16.3879C9.93133 17.1006 9.11355 17.5387 8.22935 17.5822C7.34515 17.6262 6.48878 17.2698 5.89632 16.6118L0.587078 10.72C-0.256727 9.7842 -0.181772 8.34165 0.754044 7.49784C1.69076 6.65404 3.13241 6.72944 3.97622 7.66571L7.7325 11.8345C7.78815 11.8964 7.86894 11.9296 7.95198 11.9256C8.03546 11.9215 8.11176 11.8798 8.16158 11.8134L15.8824 1.34165C16.6297 0.327289 18.0579 0.1114 19.0727 0.859156C20.0866 1.60691 20.3021 3.0351 19.5543 4.04901L10.4565 16.3879Z" fill="#F0DD45"/>
</svg>
