<svg width="32" height="61" viewBox="0 0 32 61" fill="none" xmlns="http://www.w3.org/2000/svg">
<path d="M28.8739 30.597L28.5277 30.9481L0.76013 59.1064C0.458605 59.4258 0.459395 59.9328 0.762713 60.2514C1.07022 60.5741 1.57366 60.5836 1.89244 60.2742L30.5831 31.1825C30.5832 31.1824 30.5833 31.1823 30.5834 31.1821C30.7347 31.0282 30.8207 30.8182 30.8203 30.5978C30.8197 30.3776 30.733 30.168 30.5814 30.0148L30.5808 30.0142L1.88644 0.918852L1.88042 0.912751L1.88048 0.9127C1.87395 0.905846 1.86737 0.899172 1.86061 0.892554L28.8739 30.597ZM28.8739 30.597L28.5277 30.2459M28.8739 30.597L28.5277 30.2459M28.5277 30.2459L0.754116 2.08674L0.754169 2.08669M28.5277 30.2459L0.754169 2.08669M0.754169 2.08669L0.74801 2.08066M0.754169 2.08669L0.74801 2.08066M0.74801 2.08066C0.425448 1.7647 0.41618 1.24032 0.728109 0.912648L0.74801 2.08066ZM0.728191 0.912561C1.03645 0.589093 1.54164 0.58041 1.86048 0.892419L0.728191 0.912561Z" fill="#41B718" stroke="#41B718"/>
</svg>
