<svg width="32" height="61" viewBox="0 0 32 61" fill="none" xmlns="http://www.w3.org/2000/svg">
<path d="M2.44639 30.4033L2.79262 30.0522L30.5602 1.8936C30.8617 1.57415 30.8609 1.0672 30.5576 0.748636L2.44639 30.4033ZM2.44639 30.4033L2.79266 30.7543M2.44639 30.4033L2.79266 30.7543M2.79266 30.7543L30.5662 58.9137L30.5662 58.9138M2.79266 30.7543L30.5662 58.9138M30.5662 58.9138L30.5723 58.9198M30.5662 58.9138L30.5723 58.9198M30.5723 58.9198C30.8949 59.2358 30.9042 59.7602 30.5922 60.0878C30.2839 60.4114 29.7786 60.4201 29.4597 60.1079C29.4572 60.1054 29.4546 60.1029 29.4521 60.1003C29.448 60.0962 29.4439 60.092 29.4399 60.0878L29.4399 60.0877M30.5723 58.9198L29.4399 60.0877M29.4399 60.0877L29.4339 60.0816M29.4399 60.0877L29.4339 60.0816M29.4339 60.0816L0.739465 30.986L0.738938 30.9855M29.4339 60.0816L0.738938 30.9855M0.738938 30.9855C0.587251 30.8321 0.500539 30.6224 0.500001 30.4021L2.03814e-06 30.4034L0.500001 30.4025C0.499617 30.1819 0.585753 29.9717 0.737249 29.8177M0.738938 30.9855L0.737249 29.8177M0.737249 29.8177L29.4279 0.72579C29.7467 0.41642 30.2501 0.425876 30.5576 0.748568L0.737249 29.8177Z" fill="#41B718" stroke="#41B718"/>
</svg>
