<svg width="73" height="88" viewBox="0 0 73 88" fill="none" xmlns="http://www.w3.org/2000/svg">
<path d="M62.4077 11.4691C76.474 25.5354 76.474 48.3413 62.4077 62.4076L36.9385 87.8768L11.4693 62.4076C-2.59701 48.3413 -2.59702 25.5354 11.4693 11.4691C25.5355 -2.59713 48.3415 -2.59713 62.4077 11.4691Z" fill="#F0DD45"/>
<path fill-rule="evenodd" clip-rule="evenodd" d="M36.9385 86.4626L61.7006 61.7005C75.3764 48.0248 75.3764 25.852 61.7006 12.1762C48.0249 -1.4995 25.8521 -1.4995 12.1764 12.1762C-1.49938 25.852 -1.49938 48.0248 12.1764 61.7005L36.9385 86.4626ZM62.4077 62.4076C76.474 48.3413 76.474 25.5354 62.4077 11.4691C48.3415 -2.59713 25.5355 -2.59713 11.4693 11.4691C-2.59702 25.5354 -2.59701 48.3413 11.4693 62.4076L36.9385 87.8768L62.4077 62.4076Z" fill="#C79706"/>
<path fill-rule="evenodd" clip-rule="evenodd" d="M50.6195 27.5358C50.5691 25.5939 50.1584 25.4389 47.4888 23.8897C46.088 23.0799 45.0209 22.4639 43.625 21.6512C42.391 20.9383 41.1571 20.2254 39.9232 19.5125C36.4357 17.4964 36.8167 17.4939 33.3266 19.5166C32.0947 20.229 30.8628 20.9414 29.626 21.6567C28.226 22.4681 27.1622 23.0814 25.7622 23.8928C23.0957 25.437 22.6857 25.5979 22.6362 27.538C22.6509 27.6572 22.6747 27.7575 22.7062 27.8131C22.8868 28.144 24.8667 29.2316 25.2111 29.4324C26.2306 30.0227 27.2473 30.6079 28.2668 31.1982C28.7196 30.9381 29.1774 30.6752 29.6273 30.4101C30.8592 29.6977 32.096 28.9824 33.3279 28.27C36.8208 26.2524 36.437 26.2497 39.9273 28.2709C41.1612 28.9838 42.3903 29.6996 43.6292 30.4096C44.0821 30.6743 44.5351 30.939 44.9902 31.1957C46.0095 30.6086 47.0259 30.0165 48.0452 29.4293C48.3913 29.2254 50.3736 28.1382 50.5513 27.8114C50.5815 27.76 50.6037 27.6594 50.6195 27.5358Z" fill="black"/>
<path fill-rule="evenodd" clip-rule="evenodd" d="M52.0377 27.5955C52.0413 28.569 52.0371 29.5403 52.0379 30.5088C52.0356 32.0779 52.0388 31.5243 52.0394 33.0984C52.0396 37.4449 52.3109 37.1438 48.5905 39.2954C47.0472 40.1913 45.8795 40.8657 44.3333 41.7565C42.9778 42.5417 41.6174 43.3298 40.2619 44.115C36.4229 46.3365 36.84 46.3397 32.9975 44.1156C31.6393 43.3347 30.2832 42.5457 28.9222 41.7597C27.3808 40.8646 26.2108 40.1948 24.6694 39.2997C20.959 37.1459 21.2244 37.4403 21.2193 33.0967C21.2187 31.5226 21.2204 32.0733 21.2177 30.5071C21.2141 29.5336 21.2183 28.5622 21.2176 27.5938C21.2589 29.9042 21.6505 30.0368 24.6693 31.784C26.2107 32.679 27.3836 33.3539 28.9222 34.2439C30.2783 35.0328 31.6393 35.8189 32.9975 36.5999C36.8399 38.8239 36.4228 38.8207 40.2618 36.5992C41.6173 35.8141 42.9778 35.0259 44.3333 34.2408C45.8745 33.3529 47.0442 32.6704 48.5905 31.7796C51.6059 30.0366 51.9949 29.9084 52.0377 27.5955Z" fill="black"/>
<path fill-rule="evenodd" clip-rule="evenodd" d="M52.0377 38.1523C52.0413 39.1259 52.0371 40.0973 52.0378 41.0658C52.0356 42.6349 52.0388 42.0813 52.0394 43.6554C52.0396 48.0021 52.3109 47.7009 48.5905 49.8526C47.0471 50.7485 45.8795 51.423 44.3333 52.3138C42.9778 53.099 41.6174 53.8871 40.2619 54.6723C36.4228 56.8939 36.8399 56.8971 32.9975 54.673C31.6393 53.892 30.2832 53.103 28.9221 52.317C27.3807 51.4218 26.2107 50.752 24.6693 49.8569C20.9539 47.706 21.2194 48.0004 21.2221 43.6588C21.2215 42.0846 21.2232 42.6353 21.2205 41.0691C21.2169 40.0956 21.2211 39.1242 21.2203 38.1557C21.2618 40.4662 21.6532 40.5989 24.6721 42.346C26.2135 43.2411 27.3864 43.916 28.925 44.8061C30.2811 45.595 31.6421 46.3811 33.0003 47.1621C36.8428 49.3862 36.4256 49.383 40.2647 47.1614C41.6202 46.3762 42.9806 45.5881 44.3361 44.8029C45.8774 43.915 47.0471 43.2325 48.5933 42.3417C51.6059 40.5936 51.9948 40.4653 52.0377 38.1523Z" fill="black"/>
</svg>
