<svg width="55" height="45" viewBox="0 0 55 45" fill="none" xmlns="http://www.w3.org/2000/svg">
<path d="M17.4841 22.1839C19.5961 23.0479 21.2281 24.4399 22.3801 26.3599C23.6281 28.1839 24.2521 30.3919 24.2521 32.9839C24.2521 36.4399 23.1481 39.2719 20.9401 41.4799C18.7321 43.6879 15.9961 44.7919 12.7321 44.7919C9.27607 44.7919 6.44407 43.6879 4.23607 41.4799C2.02807 39.2719 0.924072 36.4399 0.924072 32.9839C0.924072 31.2559 1.11607 29.5759 1.50007 27.9439C1.98007 26.3119 2.84407 23.8639 4.09207 20.5999L11.7241 0.151855H23.2441L17.4841 22.1839ZM48.0121 22.1839C50.1241 23.0479 51.7561 24.4399 52.9081 26.3599C54.1561 28.1839 54.7801 30.3919 54.7801 32.9839C54.7801 36.4399 53.6761 39.2719 51.4681 41.4799C49.2601 43.6879 46.5241 44.7919 43.2601 44.7919C39.8041 44.7919 36.9721 43.6879 34.7641 41.4799C32.5561 39.2719 31.4521 36.4399 31.4521 32.9839C31.4521 31.2559 31.6441 29.5759 32.0281 27.9439C32.5081 26.3119 33.3721 23.8639 34.6201 20.5999L42.2521 0.151855H53.7721L48.0121 22.1839Z" fill="#F0DD45"/>
</svg>
