<svg width="1920" height="57" viewBox="0 0 1920 57" fill="none" xmlns="http://www.w3.org/2000/svg">
<path d="M1663.62 56.9414L1535.43 3.72858L1407.81 56.9414L1279.62 3.72858L1152 56.9414L1023.81 3.72858L896.191 56.9414L768 3.72858L640.382 56.9414L512.191 3.72858L384.572 56.9414L256.382 3.72858L128.763 56.9414L0 3.72858L1.14456 0.867676L128.763 54.0805L256.382 0.867676L384.572 54.0805L512.191 0.867676L640.382 54.0805L768 0.867676L896.191 54.0805L1023.81 0.867676L1152 54.0805L1279.62 0.867676L1407.81 54.0805L1535.43 0.867676L1663.62 54.0805L1791.24 0.867676L1920 54.0805L1918.86 56.9414L1791.24 3.72858L1663.62 56.9414Z" fill="#F0DD45" fill-opacity="0.12"/>
</svg>
